<?xml version="1.0" encoding="UTF-8" standalone="no"?>
<svg
   xmlns:dc="http://purl.org/dc/elements/1.1/"
   xmlns:cc="http://creativecommons.org/ns#"
   xmlns:rdf="http://www.w3.org/1999/02/22-rdf-syntax-ns#"
   xmlns:svg="http://www.w3.org/2000/svg"
   xmlns="http://www.w3.org/2000/svg"
   xmlns:xlink="http://www.w3.org/1999/xlink"
   xmlns:sodipodi="http://sodipodi.sourceforge.net/DTD/sodipodi-0.dtd"
   xmlns:inkscape="http://www.inkscape.org/namespaces/inkscape"
   sodipodi:docname="rheinmain-tech-cabal.svg"
   version="1.1"
   data-icon="keyboard"
   data-container-transform="translate(1 39)"
   viewBox="0 0 128 160"
   x="0px"
   y="0px"
   id="svg8"
   inkscape:version="0.92.0 r">
  <sodipodi:namedview
     inkscape:current-layer="svg8"
     inkscape:window-maximized="1"
     inkscape:window-y="0"
     inkscape:window-x="0"
     inkscape:cy="100.24713"
     inkscape:cx="132.46637"
     inkscape:zoom="5.6568543"
     showgrid="false"
     id="namedview7"
     inkscape:window-height="1387"
     inkscape:window-width="3440"
     inkscape:pageshadow="2"
     inkscape:pageopacity="0"
     guidetolerance="10"
     gridtolerance="10"
     objecttolerance="10"
     borderopacity="1"
     bordercolor="#666666"
     pagecolor="#ffffff"
     showguides="true"
     inkscape:guide-bbox="true">
    <sodipodi:guide
       position="63.286057,63.993164"
       orientation="1,0"
       id="guide7414"
       inkscape:locked="false" />
  </sodipodi:namedview>
  <metadata
     id="metadata14">
    <rdf:RDF>
      <cc:Work
         rdf:about="">
        <dc:format>image/svg+xml</dc:format>
        <dc:type
           rdf:resource="http://purl.org/dc/dcmitype/StillImage" />
        <dc:title></dc:title>
      </cc:Work>
    </rdf:RDF>
  </metadata>
  <defs
     id="defs12">
    <linearGradient
       inkscape:collect="always"
       id="linearGradient7383">
      <stop
         style="stop-color:#aaa8a9;stop-opacity:1"
         offset="0"
         id="stop7379" />
      <stop
         style="stop-color:#e9afaf;stop-opacity:1"
         offset="1"
         id="stop7381" />
    </linearGradient>
    <linearGradient
       inkscape:collect="always"
       id="linearGradient7375">
      <stop
         style="stop-color:#a8a8a9;stop-opacity:1"
         offset="0"
         id="stop7371" />
      <stop
         style="stop-color:#e9afaf;stop-opacity:1"
         offset="1"
         id="stop7373" />
    </linearGradient>
    <linearGradient
       inkscape:collect="always"
       id="linearGradient7367">
      <stop
         style="stop-color:#a8a8a9;stop-opacity:1"
         offset="0"
         id="stop7363" />
      <stop
         style="stop-color:#e9afaf;stop-opacity:1"
         offset="1"
         id="stop7365" />
    </linearGradient>
    <linearGradient
       inkscape:collect="always"
       id="linearGradient4709">
      <stop
         style="stop-color:#c51e20;stop-opacity:1"
         offset="0"
         id="stop4705" />
      <stop
         style="stop-color:#ffff20;stop-opacity:0.9568733"
         offset="1"
         id="stop4707" />
    </linearGradient>
    <inkscape:perspective
       id="perspective926"
       inkscape:persp3d-origin="180.9489 : 82.906573 : 1"
       inkscape:vp_z="88.803865 : 138.01846 : 1"
       inkscape:vp_y="-861.12309 : 5.2728582e-14 : 0"
       inkscape:vp_x="88.803865 : 32.465196 : 1"
       sodipodi:type="inkscape:persp3d" />
    <inkscape:perspective
       id="perspective910"
       inkscape:persp3d-origin="136.7509 : 81.723476 : 1"
       inkscape:vp_z="44.605857 : 136.83536 : 1"
       inkscape:vp_y="-861.12309 : 5.2728582e-14 : 0"
       inkscape:vp_x="44.605857 : 31.282099 : 1"
       sodipodi:type="inkscape:persp3d" />
    <inkscape:perspective
       id="perspective824"
       inkscape:persp3d-origin="155.26116 : 83.490386 : 1"
       inkscape:vp_z="63.116125 : 138.60228 : 1"
       inkscape:vp_y="-861.12309 : 5.2728582e-14 : 0"
       inkscape:vp_x="63.116125 : 33.049008 : 1"
       sodipodi:type="inkscape:persp3d" />
    <linearGradient
       inkscape:collect="always"
       xlink:href="#linearGradient4709"
       id="linearGradient4711"
       x1="45.537544"
       y1="109.32108"
       x2="45.537544"
       y2="20.25"
       gradientUnits="userSpaceOnUse"
       gradientTransform="matrix(0.97503862,0,0,0.77196846,1.3960067,7.373698)" />
    <linearGradient
       inkscape:collect="always"
       xlink:href="#linearGradient7367"
       id="linearGradient7369"
       x1="63.63961"
       y1="136.93065"
       x2="63.63961"
       y2="105.02245"
       gradientUnits="userSpaceOnUse"
       gradientTransform="translate(0,-17.25)" />
    <linearGradient
       inkscape:collect="always"
       xlink:href="#linearGradient7375"
       id="linearGradient7377"
       x1="103.67953"
       y1="130.38991"
       x2="72.153381"
       y2="104.53623"
       gradientUnits="userSpaceOnUse"
       gradientTransform="translate(0,-17.25)" />
    <linearGradient
       inkscape:collect="always"
       xlink:href="#linearGradient7383"
       id="linearGradient7385"
       x1="24.925514"
       y1="130.74345"
       x2="56.214989"
       y2="104.05018"
       gradientUnits="userSpaceOnUse"
       gradientTransform="translate(0,-17.25)" />
  </defs>
  <g
     id="g7557">
    <g
       id="g931" />
    <path
       inkscape:connector-curvature="0"
       id="path7416"
       d="m 63.286057,18.694292 c -6.423942,-0.225902 -8.734586,7.116473 -8.17579,12.41211 -5.428986,-3.887139 -11.845735,2.547825 -8.173308,8.104647 0.684524,3.523501 1.008286,8.648591 -3.208839,4.879 -4.035247,-1.686304 -7.977769,2.967566 -6.418993,6.834285 0.02744,3.432849 1.664901,9.253049 -3.36629,8.003517 -6.066828,2.272106 -1.441344,7.897786 -2.77784,12.086754 -1.497802,7.377472 0.438923,15.418525 5.24024,21.232425 -7.259031,5.2756 -14.638399,10.39955 -21.820515,15.7721 -2.791805,3.14936 -2.186715,9.78313 2.691868,10.54612 4.882199,1.51157 9.644183,3.51218 14.606314,4.69941 4.151689,0.0853 6.258604,-4.05621 9.124493,-6.41065 1.656063,-1.64439 3.312127,-3.28878 4.96819,-4.93317 -0.991106,4.61433 -3.22064,9.61718 -0.880747,14.14019 2.743583,3.79982 7.710132,2.20441 11.683,2.54731 8.108655,-0.076 16.233403,0.15403 24.3317,-0.11881 5.244008,-1.12921 5.23122,-7.53094 3.841871,-11.55815 -0.576966,-1.78528 -1.768822,-4.57371 0.443414,-1.80862 2.991957,2.63125 5.360801,6.14914 8.934292,7.968 3.819613,0.65319 7.300073,-1.68843 10.927313,-2.5879 3.21382,-1.4369 7.52096,-1.49498 9.49025,-4.7569 1.30053,-3.47992 0.10936,-7.77688 -3.3648,-9.46714 C 105.41249,101.98895 99.443092,97.69907 93.473697,93.40919 100.50691,88.2413 104.33954,78.686699 101.20792,70.274467 98.542559,65.30652 101.24942,58.933073 97.943052,53.767323 96.487688,49.445885 92.706402,45.29767 88.601962,45.379209 86.485789,39.899886 82.785565,33.870898 76.573886,32.703981 71.904088,34.083776 68.394911,27.238796 67.850931,22.991325 67.568972,20.715473 65.577043,18.835473 63.286057,18.694292 Z"
       style="color:#000000;font-style:normal;font-variant:normal;font-weight:normal;font-stretch:normal;font-size:medium;line-height:normal;font-family:sans-serif;font-variant-ligatures:normal;font-variant-position:normal;font-variant-caps:normal;font-variant-numeric:normal;font-variant-alternates:normal;font-feature-settings:normal;text-indent:0;text-align:start;text-decoration:none;text-decoration-line:none;text-decoration-style:solid;text-decoration-color:#000000;letter-spacing:normal;word-spacing:normal;text-transform:none;writing-mode:lr-tb;direction:ltr;text-orientation:mixed;dominant-baseline:auto;baseline-shift:baseline;text-anchor:start;white-space:normal;shape-padding:0;clip-rule:nonzero;display:inline;overflow:visible;visibility:visible;opacity:1;isolation:auto;mix-blend-mode:normal;color-interpolation:sRGB;color-interpolation-filters:linearRGB;solid-color:#000000;solid-opacity:1;vector-effect:none;fill:#000000;fill-opacity:1;fill-rule:evenodd;stroke:#000000;stroke-width:1;stroke-linecap:round;stroke-linejoin:round;stroke-miterlimit:4;stroke-dasharray:none;stroke-dashoffset:0;stroke-opacity:1;color-rendering:auto;image-rendering:auto;shape-rendering:auto;text-rendering:auto;enable-background:accumulate" />
    <path
       id="path1518"
       d="m 70.744141,92.11328 0.330078,1.29688 24.117187,23.95312 c 0.24099,0.24399 0.386129,0.31152 0.730469,0.20117 l 13.693355,-4.60547 c 0.17853,-0.06 0.32227,-0.26804 0.32227,-0.46875 v -1.08007 c 0,-0.0357 -0.0115,-0.064 -0.0195,-0.0937 -0.005,0.19869 -0.13806,0.40215 -0.33594,0.46875 l -13.662108,4.5957 c -0.18958,0.0323 -0.481167,0.10858 -0.685547,-0.0898 z"
       style="fill:#4d4d4d;fill-opacity:1;fill-rule:evenodd;stroke:none;stroke-width:1px;stroke-linecap:butt;stroke-linejoin:miter;stroke-opacity:1"
       inkscape:connector-curvature="0" />
    <path
       id="path1515"
       d="m 56.367188,92.59766 -23.962891,23.65625 c -0.204386,0.19842 -0.495968,0.12213 -0.685547,0.0898 l -13.662109,-4.5957 c -0.197873,-0.0666 -0.33118,-0.27006 -0.335938,-0.46875 -0.0085,0.0297 -0.01953,0.058 -0.01953,0.0937 v 1.08007 c 0,0.20072 0.143744,0.40873 0.322266,0.46876 l 13.693359,4.60546 c 0.344338,0.11036 0.489476,0.0428 0.730469,-0.20117 L 56.15625,93.7793 Z"
       style="fill:#4d4d4d;fill-opacity:1;fill-rule:evenodd;stroke:none;stroke-width:1px;stroke-linecap:butt;stroke-linejoin:miter;stroke-opacity:1"
       inkscape:connector-curvature="0" />
    <path
       id="path1428"
       d="m 74.671875,85.77148 -7.951172,1.80469 c -0.13854,0.0314 -0.176318,0.14049 -0.08008,0.23438 l 0.01758,0.0176 2.992188,-0.0117 0.11914,0.46679 0.279297,0.25196 c 0.0415,0.0374 0.03407,0.0716 -0.01953,0.084 l -0.164063,0.0391 0.07617,0.29883 0.367188,-0.0859 c 0.054,-0.0126 0.117706,0.005 0.160156,0.043 l 0.724609,0.65039 c 0.0443,0.0399 0.03567,0.0769 -0.01953,0.0899 l -0.921875,0.21679 c -0.02845,0.007 -0.05455,-0.0149 -0.08398,-0.0234 l 0.474609,1.86718 24.226563,23.64063 c 0.35131,0.34279 0.877497,0.5726 1.123047,0.49023 L 109.78906,111.219 c 0.22459,-0.0753 0.0522,-0.40709 -0.36523,-0.70703 L 75.142578,85.87695 c -0.11942,-0.0858 -0.338473,-0.13546 -0.470703,-0.10547 z m 0.05859,0.84961 c 0.0508,-0.0117 0.114586,0.003 0.160156,0.0371 l 0.775391,0.57618 c 0.0475,0.0353 0.04379,0.0661 -0.0078,0.0781 l -0.867187,0.20117 c -0.0522,0.0121 -0.117663,-0.004 -0.164063,-0.0391 L 73.86915,86.89251 c -0.0445,-0.0342 -0.03948,-0.0645 0.01172,-0.0762 z m -1.361328,0.3125 c 0.0513,-0.0118 0.114033,0.003 0.158203,0.0371 l 1.375,1.06836 c 0.0475,0.037 0.04313,0.0716 -0.0098,0.084 l -0.886719,0.20703 c -0.0534,0.0125 -0.119625,-0.005 -0.166015,-0.043 L 72.498009,87.207 c -0.0431,-0.0347 -0.03783,-0.0663 0.01367,-0.0781 z m -1.373047,0.31446 c 0.0517,-0.0118 0.115443,0.004 0.158203,0.0391 l 1.638672,1.33594 c 0.0468,0.0381 0.04218,0.0713 -0.01172,0.084 l -0.900391,0.21289 c -0.0542,0.0127 -0.122378,-0.007 -0.167968,-0.0449 l -1.597657,-1.34961 c -0.0417,-0.0352 -0.03442,-0.0682 0.01758,-0.0801 z m 3.982422,0.30273 c 0.0523,-0.0122 0.119458,0.003 0.167968,0.0391 l 0.826172,0.61524 c 0.0506,0.0376 0.04794,0.0694 -0.0059,0.082 l -0.892578,0.21094 c -0.0537,0.0127 -0.122405,-0.005 -0.171875,-0.043 l -0.806641,-0.61914 c -0.0474,-0.0364 -0.04313,-0.0697 0.0098,-0.082 z m -5.365235,0.0156 c 0.0521,-0.0119 0.112987,0.002 0.154297,0.0371 l 2.197266,1.88086 c 0.0467,0.04 0.03947,0.0767 -0.01563,0.0898 l -0.921875,0.2168 c -0.0555,0.0131 -0.122499,-0.004 -0.167969,-0.0449 L 69.722647,87.8437 c -0.0402,-0.0358 -0.03277,-0.0661 0.01953,-0.0781 z m 4.59961,0.80468 c 0.0535,-0.0126 0.121361,0.005 0.169921,0.043 l 0.826172,0.64258 c 0.0507,0.0394 0.04834,0.0749 -0.0059,0.0879 l -0.912109,0.2168 c -0.0549,0.0131 -0.124308,-0.005 -0.173828,-0.0449 l -0.808594,-0.65039 c -0.0474,-0.0382 -0.04198,-0.0714 0.01172,-0.084 z m 2.095703,0.16993 c 0.0538,-0.0127 0.124051,0.004 0.175781,0.043 l 0.880859,0.6543 c 0.0541,0.0402 0.05255,0.0767 -0.002,0.0898 l -0.917969,0.22071 c -0.0553,0.0132 -0.126847,-0.006 -0.179687,-0.0469 l -0.861328,-0.66211 c -0.0506,-0.0389 -0.04834,-0.0731 0.0059,-0.0859 z m -3.212891,0.42382 c 0.0543,-0.0128 0.122122,0.004 0.169922,0.043 l 0.814453,0.66407 c 0.0499,0.0407 0.04554,0.0765 -0.0098,0.0898 l -0.927734,0.22266 c -0.0558,0.0133 -0.125118,-0.005 -0.173828,-0.0469 L 73.17379,89.26556 c -0.0466,-0.0394 -0.04093,-0.075 0.01367,-0.0879 z m 2.449219,0.44532 c 0.055,-0.0131 0.125864,0.005 0.177734,0.0449 l 0.884766,0.6875 c 0.0542,0.0422 0.05209,0.0802 -0.0039,0.0937 l -0.939454,0.22656 c -0.0566,0.0137 -0.130613,-0.004 -0.183593,-0.0469 L 75.61719,89.72057 c -0.0506,-0.0408 -0.04759,-0.0786 0.0078,-0.0918 z m 2.183594,0.18945 c 0.0553,-0.0133 0.128293,0.004 0.183593,0.0449 l 0.94336,0.70117 c 0.0579,0.043 0.05875,0.0818 0.002,0.0957 l -0.947266,0.23047 c -0.0569,0.0139 -0.13092,-0.005 -0.1875,-0.0488 l -0.921875,-0.70899 c -0.0541,-0.0416 -0.05395,-0.0784 0.002,-0.0918 z m -5.464844,0.24414 c 0.0556,-0.0132 0.124115,0.004 0.171875,0.0449 L 74.25,90.58594 c 0.05,0.0428 0.04518,0.08 -0.01172,0.0937 l -0.949219,0.23047 c -0.0572,0.0138 -0.127121,-0.008 -0.175781,-0.0508 l -0.792969,-0.70508 c -0.0465,-0.0414 -0.04027,-0.0766 0.01563,-0.0899 z m -1.791016,0.0801 c 0.0556,-0.0132 0.122639,0.004 0.167969,0.0449 l 0.773437,0.69531 c 0.0474,0.0427 0.04127,0.082 -0.01562,0.0957 l -0.951172,0.22656 c -0.0572,0.0137 -0.127728,-0.006 -0.173828,-0.0488 l -0.75,-0.70312 c -0.0441,-0.0413 -0.03647,-0.0785 0.01953,-0.0918 z m 3.933594,0.11328 c 0.0559,-0.0134 0.128598,0.005 0.179688,0.0469 l 0.871093,0.71094 c 0.0535,0.0436 0.04929,0.0818 -0.0078,0.0957 l -0.955078,0.23243 c -0.0575,0.014 -0.131444,-0.007 -0.183594,-0.0508 l -0.849609,-0.71875 c -0.0498,-0.0421 -0.04458,-0.0784 0.01172,-0.0918 z m 2.564453,0.48437 c 0.0567,-0.0138 0.130027,0.006 0.185547,0.0488 l 0.947266,0.73633 c 0.0582,0.0452 0.05804,0.0853 0,0.0996 l -0.96875,0.23828 c -0.0584,0.0144 -0.13655,-0.007 -0.19336,-0.0527 l -0.923828,-0.74414 c -0.0542,-0.0437 -0.05339,-0.0819 0.0039,-0.0957 z m 2.275391,0.20899 c 0.057,-0.014 0.136062,0.007 0.195312,0.0508 l 1.009766,0.75 c 0.0621,0.0461 0.06456,0.0871 0.0059,0.10156 l -0.974609,0.24414 c -0.0587,0.0146 -0.138489,-0.008 -0.199219,-0.0547 l -0.988281,-0.75977 c -0.0579,-0.0445 -0.05932,-0.0837 -0.002,-0.0977 z m -5.669922,0.23828 c 0.0573,-0.0139 0.128557,0.007 0.179687,0.0508 l 0.873047,0.74609 c 0.0536,0.0459 0.04854,0.0853 -0.0098,0.0996 l -0.978516,0.24219 c -0.059,0.0145 -0.133367,-0.008 -0.185547,-0.0547 L 73.60543,91.29687 c -0.0498,-0.0443 -0.04393,-0.0817 0.01367,-0.0957 z m -1.859375,0.0781 c 0.0573,-0.0138 0.127271,0.007 0.175781,0.0508 l 0.828125,0.74414 c 0.0508,0.0458 0.04503,0.0853 -0.01367,0.0996 l -0.980469,0.24023 c -0.0591,0.0144 -0.13223,-0.007 -0.18164,-0.0527 L 71.740234,91.375 c -0.0472,-0.0442 -0.04012,-0.0838 0.01758,-0.0977 z m 4.09375,0.13867 c 0.0576,-0.0141 0.13277,0.006 0.1875,0.0508 l 0.933594,0.76172 c 0.0574,0.0468 0.05549,0.087 -0.0039,0.10156 l -0.986328,0.24414 c -0.0594,0.0147 -0.135436,-0.007 -0.191406,-0.0547 L 75.837894,91.5195 c -0.0534,-0.0452 -0.05049,-0.0854 0.0078,-0.0996 z m 2.685547,0.52539 c 0.0585,-0.0145 0.137685,0.007 0.197265,0.0527 l 1.015625,0.79102 c 0.0625,0.0486 0.06526,0.0924 0.0059,0.10742 l -1.001953,0.25195 c -0.0602,0.0151 -0.140102,-0.01 -0.201172,-0.0586 l -0.994141,-0.79883 c -0.0582,-0.0469 -0.05675,-0.0889 0.002,-0.10352 z m 2.380859,0.23437 c 0.0588,-0.0147 0.139495,0.007 0.203125,0.0547 l 1.085938,0.80664 c 0.0668,0.0496 0.07192,0.0941 0.01172,0.10938 l -1.007812,0.2539 c -0.0606,0.0154 -0.143625,-0.006 -0.208984,-0.0566 l -1.0625,-0.81836 c -0.0622,-0.0478 -0.06506,-0.0888 -0.0059,-0.10351 z m -5.896484,0.23047 c 0.0591,-0.0146 0.134593,0.008 0.189453,0.0547 l 0.9375,0.80078 c 0.0576,0.0493 0.05484,0.0923 -0.0059,0.10742 L 76.0898,93.39255 c -0.0609,0.0152 -0.139223,-0.009 -0.195313,-0.0586 l -0.912109,-0.81054 c -0.0534,-0.0475 -0.04973,-0.0888 0.0098,-0.10352 z m -1.931641,0.0762 c 0.0592,-0.0145 0.133507,0.006 0.185547,0.0527 l 8.716797,7.85351 c 0.0782,0.0705 0.08252,0.12888 0.01172,0.14844 l -1.185547,0.32813 c -0.0714,0.0197 -0.169894,-0.0145 -0.246094,-0.0859 l -8.486328,-7.95117 c -0.0506,-0.0474 -0.04387,-0.0889 0.01563,-0.10352 z m 4.265625,0.16407 c 0.0595,-0.0148 0.138476,0.006 0.197266,0.0547 l 1.003906,0.81836 c 0.0617,0.0503 0.06335,0.094 0.002,0.10938 l -1.019531,0.25781 c -0.0613,0.0155 -0.142885,-0.007 -0.203125,-0.0586 l -0.978516,-0.83008 c -0.0574,-0.0485 -0.05569,-0.0906 0.0039,-0.10547 z m 2.820313,0.57421 c 0.0603,-0.0152 0.142941,0.007 0.207031,0.0567 h 0.002 l 1.09375,0.85351 c 0.0674,0.0524 0.07197,0.0974 0.0098,0.11328 l -1.033204,0.26563 c -0.0622,0.016 -0.149003,-0.01 -0.214843,-0.0625 l -1.070313,-0.86133 c -0.0626,-0.0504 -0.06275,-0.096 -0.002,-0.11133 z m 2.49414,0.25977 c 0.0607,-0.0155 0.146324,0.008 0.214844,0.0586 l 1.171875,0.8711 c 0.0721,0.0536 0.07783,0.10105 0.01563,0.11719 l -1.041016,0.26953 c -0.0626,0.0163 -0.150173,-0.0101 -0.220703,-0.0645 l -1.146484,-0.88086 c -0.067,-0.0515 -0.07067,-0.0957 -0.0098,-0.11132 z m -6.138672,0.22266 c 0.061,-0.0153 0.140199,0.008 0.199219,0.0586 l 1.007813,0.86328 c 0.062,0.0531 0.0625,0.0992 0,0.11524 l -1.044922,0.26757 c -0.0629,0.0161 -0.146562,-0.0105 -0.207032,-0.0644 l -0.982421,-0.87305 c -0.0575,-0.0511 -0.05399,-0.0959 0.0078,-0.11132 z m 2.441407,0.26562 c 0.0614,-0.0156 0.145684,0.009 0.208984,0.0605 l 1.082031,0.88281 c 0.0666,0.0543 0.06896,0.10094 0.0059,0.11719 l -1.052735,0.27148 c -0.0634,0.0164 -0.149833,-0.009 -0.214843,-0.0645 l -1.054688,-0.89258 c -0.0618,-0.0523 -0.06184,-0.0976 0,-0.11328 z m 2.96875,0.62891 c 0.0623,-0.0161 0.14961,0.009 0.21875,0.0625 h 0.002 l 1.18164,0.91992 c 0.0728,0.0566 0.07953,0.10627 0.01563,0.12305 l -1.070312,0.28125 c -0.0644,0.0169 -0.153419,-0.0111 -0.224609,-0.0684 l -1.15625,-0.93164 c -0.0676,-0.0544 -0.07051,-0.101 -0.0078,-0.11719 z m 2.617187,0.29101 c 0.0627,-0.0164 0.152563,0.009 0.226563,0.0645 l 1.267578,0.93945 c 0.078,0.058 0.08578,0.10986 0.02148,0.12695 l -1.076172,0.28516 c -0.0648,0.0172 -0.158025,-0.0116 -0.234375,-0.0703 l -1.240234,-0.95118 c -0.0724,-0.0557 -0.07687,-0.1046 -0.01367,-0.12109 z m -6.402344,0.21094 c 0.0631,-0.0162 0.147278,0.008 0.210938,0.0625 l 1.089844,0.93359 c 0.067,0.0574 0.06871,0.10617 0.0039,0.12305 l -1.082031,0.2832 c -0.0651,0.017 -0.151417,-0.0102 -0.216797,-0.0684 l -1.0625,-0.94531 c -0.0621,-0.0552 -0.06105,-0.10284 0.002,-0.11914 z m 2.5625,0.29688 c 0.0635,-0.0165 0.15038,0.011 0.21875,0.0664 l 1.169922,0.95313 c 0.0721,0.0588 0.07682,0.10975 0.01172,0.12695 l -1.087891,0.28711 c -0.0656,0.0173 -0.156192,-0.0108 -0.226562,-0.0703 l -1.142578,-0.9668 c -0.0668,-0.0564 -0.06936,-0.10451 -0.0059,-0.12109 z m 3.13086,0.68945 c 0.0645,-0.017 0.157612,0.0102 0.232422,0.0684 l 1.28125,0.99609 c 0.079,0.0614 0.08758,0.11502 0.02148,0.13281 l -1.107422,0.29688 c -0.0666,0.0179 -0.163024,-0.012 -0.240234,-0.0742 l -1.251953,-1.00781 c -0.0731,-0.0589 -0.07857,-0.10982 -0.01367,-0.12696 z m 2.751953,0.32422 c 0.0649,-0.0173 0.160074,0.0107 0.240234,0.0703 l 1.373047,1.02148 c 0.0847,0.0629 0.09785,0.11664 0.03125,0.13477 l -1.113281,0.30273 c -0.0671,0.0183 -0.169043,-0.0125 -0.251953,-0.0762 l -1.34375,-1.0332 c -0.0785,-0.0603 -0.08688,-0.11145 -0.02148,-0.12891 z m -6.6875,0.19726 c 0.0652,-0.0171 0.153776,0.0113 0.222656,0.0703 l 1.179688,1.00976 c 0.0727,0.0623 0.07646,0.11491 0.0098,0.13281 l -1.121094,0.30078 c -0.0675,0.018 -0.159548,-0.0131 -0.230468,-0.0762 l -1.150391,-1.02343 c -0.0672,-0.0597 -0.06795,-0.10972 -0.002,-0.12696 z m 2.691406,0.33203 c 0.0657,-0.0175 0.158362,0.0119 0.232422,0.0723 l 1.269531,1.03516 c 0.0782,0.0638 0.08508,0.11846 0.01758,0.13671 l -1.128906,0.30469 c -0.0679,0.0184 -0.163814,-0.0135 -0.240234,-0.0781 L 82.47656,97.13285 c -0.0723,-0.0612 -0.07792,-0.11329 -0.01172,-0.13086 z M 86.875,97.4668 c 0.0667,-0.0181 0.166847,0.0131 0.248047,0.0762 l 1.390625,1.08203 c 0.0859,0.0668 0.0978,0.12367 0.0293,0.14258 l -1.146485,0.3164 c -0.0691,0.0191 -0.171839,-0.0124 -0.255859,-0.0801 L 85.7793,97.90625 c -0.0794,-0.064 -0.08673,-0.11853 -0.01953,-0.13672 z m 2.902344,0.36523 c 0.0672,-0.0184 0.168739,0.0114 0.255859,0.0762 l 1.494141,1.11133 c 0.0922,0.0685 0.108072,0.12718 0.03906,0.14649 l -1.154297,0.32226 c -0.0696,0.0194 -0.177228,-0.0145 -0.267578,-0.084 l -1.46289,-1.125 c -0.0853,-0.0656 -0.097,-0.12012 -0.0293,-0.13868 z m -7.001953,0.17969 c 0.0676,-0.0182 0.161548,0.0122 0.236328,0.0762 h 0.002 l 1.28125,1.09766 c 0.0791,0.0677 0.08513,0.1255 0.01563,0.14453 l -1.162109,0.31836 c -0.07,0.0192 -0.166961,-0.0133 -0.244141,-0.082 l -1.251953,-1.11133 c -0.0729,-0.0649 -0.07581,-0.12037 -0.0078,-0.13867 z m 2.835937,0.37305 c 0.0681,-0.0185 0.167557,0.0125 0.248047,0.0781 l 1.380859,1.125 c 0.0852,0.0695 0.09539,0.12901 0.02539,0.14844 l -1.169922,0.32422 c -0.0705,0.0196 -0.174532,-0.0135 -0.257812,-0.084 l -1.347657,-1.14062 c -0.0786,-0.0665 -0.08618,-0.12391 -0.01758,-0.14258 z m 3.511719,0.83593 c 0.0692,-0.0192 0.173269,0.0132 0.261719,0.082 l 1.519531,1.18165 c 0.0938,0.0729 0.108219,0.13411 0.03711,0.15429 l -1.189453,0.33789 c -0.0717,0.0203 -0.181647,-0.0159 -0.273437,-0.0898 l -1.484375,-1.19727 c -0.0865,-0.0697 -0.09704,-0.12712 -0.02734,-0.14648 z m 3.066406,0.40821 c 0.0697,-0.0196 0.178408,0.0153 0.273438,0.0859 l 1.632812,1.21289 c 0.10088,0.075 0.120418,0.13759 0.04883,0.15821 l -1.199219,0.3457 c -0.0722,0.0208 -0.186316,-0.0158 -0.285156,-0.0918 L 91.0625,100.10938 c -0.0931,-0.0716 -0.109232,-0.13258 -0.03906,-0.15235 z m -7.34375,0.16015 c 0.0701,-0.0193 0.170493,0.0142 0.251953,0.084 l 1.398438,1.19726 c 0.0864,0.074 0.09554,0.13594 0.02344,0.15625 l -1.207031,0.33985 c -0.0727,0.0205 -0.177409,-0.0149 -0.261719,-0.0898 l -1.363284,-1.2149 c -0.0795,-0.0707 -0.08622,-0.12896 -0.01563,-0.14844 z m 2.996094,0.41797 c 0.0706,-0.0197 0.175862,0.0143 0.263672,0.0859 l 1.507812,1.23047 c 0.0932,0.076 0.105823,0.1394 0.0332,0.16015 l -1.214843,0.34766 c -0.0732,0.0209 -0.182328,-0.0166 -0.273438,-0.0937 l -1.474609,-1.24609 c -0.0858,-0.0726 -0.09454,-0.1344 -0.02344,-0.1543 z m -4.349609,0.57813 c 0.0716,-0.0199 0.173336,0.0153 0.253906,0.0879 l 1.382812,1.24609 c 0.0855,0.0771 0.09313,0.14121 0.01953,0.16211 l -1.232422,0.34961 c -0.0742,0.0211 -0.178349,-0.0156 -0.261719,-0.0937 l -1.349609,-1.26367 c -0.0785,-0.0736 -0.08187,-0.13622 -0.0098,-0.15625 z m 8.083984,0.34765 c 0.0718,-0.0205 0.182587,0.0166 0.279297,0.0918 l 1.662109,1.29297 c 0.10284,0.08 0.122708,0.14833 0.04883,0.16992 l -1.236328,0.36133 c -0.0745,0.0218 -0.190335,-0.0185 -0.291016,-0.0996 l -1.626953,-1.31055 c -0.0947,-0.0763 -0.109439,-0.14144 -0.03711,-0.16211 z m 3.25,0.46094 c 0.0723,-0.021 0.190852,0.0165 0.294922,0.0937 l 1.789062,1.33008 c 0.11078,0.0823 0.134917,0.15174 0.06055,0.17383 l -1.246094,0.37109 c -0.0751,0.0223 -0.196077,-0.02 -0.304687,-0.10352 l -1.753906,-1.34765 c -0.10199,-0.0784 -0.121708,-0.14489 -0.04883,-0.16602 z m -7.722656,0.13477 c 0.0728,-0.0206 0.180461,0.0155 0.269531,0.0918 l 1.529297,1.31055 c 0.0947,0.0811 0.108193,0.15012 0.0332,0.17187 l -1.253906,0.36329 c -0.0756,0.0219 -0.186817,-0.0174 -0.279297,-0.0996 l -1.496094,-1.33008 c -0.087,-0.0773 -0.09488,-0.1413 -0.02148,-0.16211 z m 3.173828,0.4707 c 0.0733,-0.0211 0.18509,0.0173 0.28125,0.0957 l 1.654297,1.34766 c 0.10237,0.0835 0.120412,0.15353 0.04492,0.17578 l -1.263671,0.37305 c -0.0761,0.0224 -0.194812,-0.0188 -0.294922,-0.10352 l -1.615235,-1.36719 c -0.094,-0.0795 -0.107103,-0.14669 -0.0332,-0.16797 z m -4.550782,0.60547 c 0.0744,-0.0213 0.183235,0.0182 0.271485,0.0977 l 1.517578,1.36524 c 0.094,0.0846 0.105987,0.15728 0.0293,0.17969 l -1.283203,0.375 c -0.0773,0.0226 -0.18965,-0.0196 -0.28125,-0.10547 L 84.5,103.33008 c -0.086,-0.0806 -0.09258,-0.1485 -0.01758,-0.16992 z m 8.535157,0.42383 c 0.0746,-0.022 0.194591,0.019 0.300781,0.10156 l 1.828125,1.42187 c 0.11326,0.0881 0.137437,0.16235 0.06055,0.18555 l -1.285156,0.38867 c -0.0775,0.0234 -0.203514,-0.022 -0.314454,-0.11133 l -1.791015,-1.4414 c -0.10398,-0.0838 -0.122105,-0.15362 -0.04687,-0.17578 z m 3.458984,0.52148 c 0.0751,-0.0225 0.200003,0.0185 0.314453,0.10352 l 1.970704,1.46484 c 0.12223,0.0908 0.15356,0.16764 0.0762,0.19141 l -1.294921,0.39843 c -0.078,0.024 -0.212161,-0.0212 -0.332031,-0.11328 l -1.93164,-1.48633 c -0.11222,-0.0863 -0.136417,-0.15896 -0.06055,-0.18164 z m -8.144531,0.10352 c 0.0757,-0.0221 0.191262,0.0178 0.289062,0.10156 l 1.683594,1.4414 c 0.10431,0.0893 0.122992,0.16609 0.04492,0.18946 l -1.306641,0.39062 c -0.0787,0.0236 -0.198881,-0.0226 -0.300781,-0.11328 l -1.644531,-1.46094 c -0.0955,-0.0849 -0.10754,-0.15737 -0.03125,-0.17968 z m 3.375,0.53125 c 0.0763,-0.0227 0.196974,0.0212 0.302734,0.10742 l 1.820313,1.48437 c 0.11294,0.0921 0.137263,0.16942 0.05859,0.19336 l -1.316406,0.40039 c -0.0793,0.0242 -0.205906,-0.0218 -0.316406,-0.11523 l -1.783203,-1.50586 c -0.10344,-0.0875 -0.119869,-0.16271 -0.04297,-0.18555 z m -5.730469,0.95507 c 0.026,-0.008 0.09522,0.0175 0.126953,0.0469 l 1.810547,1.67383 c 0.0341,0.0315 0.03111,0.07 0.0039,0.0781 l -0.402343,0.1211 c -0.0269,0.008 -0.0795,-0.0133 -0.113282,-0.0449 l -1.794922,-1.68164 c -0.0315,-0.0295 -0.04583,-0.0703 -0.01953,-0.0781 z m 9.998047,0.19532 c 0.0776,-0.0236 0.207079,0.0202 0.324219,0.11132 l 2.019531,1.57227 c 0.12534,0.0975 0.156222,0.17809 0.07617,0.20313 l -1.339844,0.41992 c -0.0808,0.0253 -0.217014,-0.0241 -0.339844,-0.12305 L 95.980469,106.125 c -0.11475,-0.0925 -0.138947,-0.17147 -0.06055,-0.19531 z m 3.69141,0.59179 c 0.0781,-0.0242 0.21336,0.0213 0.33984,0.11524 l 4.03516,2.99804 c 0.143,0.10625 0.1839,0.1959 0.10156,0.22266 l -1.37891,0.44727 c -0.0831,0.027 -0.23267,-0.0268 -0.37304,-0.13477 l -3.958989,-3.04297 c -0.12408,-0.0954 -0.153138,-0.17478 -0.07422,-0.19922 z m -8.611332,0.0645 c 0.0788,-0.0238 0.202657,0.0209 0.310547,0.11328 l 5.96875,5.11133 c 0.13206,0.11308 0.162142,0.20643 0.07617,0.23437 l -1.4375,0.46875 c -0.0868,0.0282 -0.232158,-0.0296 -0.361328,-0.14453 l -5.833985,-5.18945 c -0.10541,-0.0937 -0.122488,-0.17131 -0.04297,-0.19532 z m 3.597656,0.60351 c 0.0794,-0.0244 0.211245,0.0239 0.328125,0.11914 l 4.619141,3.76563 c 0.13585,0.11076 0.17061,0.20293 0.0859,0.23047 l -1.417971,0.46093 c -0.0856,0.0278 -0.232205,-0.0281 -0.365235,-0.14062 l -4.523437,-3.82422 c -0.11438,-0.0967 -0.136771,-0.1785 -0.05664,-0.20313 z m -4.929687,0.6836 c 0.0269,-0.008 0.101019,0.0205 0.136719,0.0527 l 2.037109,1.83594 c 0.0384,0.0346 0.03952,0.0753 0.01172,0.084 l -0.417969,0.13086 c -0.0279,0.009 -0.08496,-0.014 -0.123047,-0.0488 l -2.021484,-1.84375 c -0.0354,-0.0323 -0.05454,-0.0796 -0.02734,-0.0879 z m -1.080078,0.33007 c 0.0271,-0.008 0.09964,0.0202 0.134765,0.0527 l 2.00586,1.85351 c 0.0378,0.035 0.03757,0.0772 0.0098,0.0859 l -0.421875,0.13086 c -0.0281,0.009 -0.08555,-0.0137 -0.123046,-0.0488 l -1.988282,-1.86328 c -0.0349,-0.0327 -0.05279,-0.0795 -0.02539,-0.0879 z m 10.599611,0.27539 c 0.0809,-0.0255 0.22168,0.026 0.35156,0.12696 l 2.24414,1.74414 c 0.13948,0.10848 0.17729,0.19941 0.0937,0.22656 l -1.39844,0.45313 c -0.0844,0.0274 -0.23238,-0.0265 -0.36914,-0.13672 l -2.199216,-1.77149 c -0.12728,-0.10255 -0.157791,-0.18907 -0.07617,-0.21484 z m -7.646486,2.46094 c 0.0283,-0.009 0.107444,0.0224 0.146484,0.0586 l 2.232422,2.06445 c 0.0422,0.039 0.04483,0.0862 0.01563,0.0957 l -0.439453,0.14258 c -0.0294,0.01 -0.09294,-0.0174 -0.134766,-0.0566 l -2.214844,-2.07422 c -0.0387,-0.0363 -0.05995,-0.0866 -0.03125,-0.0957 z"
       style="fill:url(#linearGradient7377);fill-opacity:1;stroke-width:1.06886816"
       inkscape:connector-curvature="0" />
    <path
       id="path1497"
       d="m 52.945312,85.84375 c -0.132229,-0.03 -0.351283,0.0197 -0.470703,0.10547 l -34.279297,24.63476 c -0.41741,0.29994 -0.591777,0.63174 -0.367187,0.70704 L 31.625,115.91797 c 0.580095,0.19459 0.724452,-0.10326 1.123047,-0.49219 l 23.666015,-23.08984 0.294922,-1.66797 -0.365234,0.3418 c -0.0461,0.0432 -0.114675,0.0625 -0.171875,0.0488 l -0.951172,-0.22656 c -0.0569,-0.0137 -0.06303,-0.053 -0.01563,-0.0957 L 55.976557,90.041 c 0.04533,-0.0411 0.112369,-0.0581 0.167969,-0.0449 l 0.658203,0.1543 0.05664,-0.32617 -0.416016,-0.0977 c -0.0552,-0.013 -0.06188,-0.0499 -0.01758,-0.0898 l 0.556641,-0.5 0.08594,-0.48438 -1.310547,1.16602 c -0.04547,0.0406 -0.112468,0.058 -0.167968,0.0449 l -0.921875,-0.21875 c -0.0551,-0.0131 -0.06037,-0.0479 -0.01367,-0.0879 l 2.195312,-1.88086 c 0.04131,-0.035 0.10415,-0.051 0.15625,-0.0391 l 0.869141,0.20117 c 0.01848,0.004 0.02397,0.013 0.03125,0.0215 l 3.082031,-0.0117 c 0.05554,-0.0843 0.0295,-0.17173 -0.0918,-0.19922 z m -0.05859,0.84961 0.849609,0.19531 c 0.0512,0.0117 0.05622,0.042 0.01172,0.0762 l -0.757813,0.58204 c -0.0464,0.0353 -0.111862,0.0512 -0.164062,0.0391 l -0.867188,-0.20117 c -0.0516,-0.012 -0.05531,-0.0428 -0.0078,-0.0781 l 0.77539,-0.57617 c 0.04557,-0.034 0.109357,-0.0488 0.160157,-0.0371 z m 1.361328,0.3125 0.857422,0.19531 c 0.0515,0.0118 0.05677,0.0434 0.01367,0.0781 l -1.341797,1.08008 c -0.04639,0.0376 -0.112616,0.0555 -0.166016,0.043 L 52.72461,88.19337 c -0.0529,-0.0124 -0.05727,-0.045 -0.0098,-0.082 l 1.375,-1.06836 c 0.04417,-0.0346 0.106903,-0.0489 0.158203,-0.0371 z m 1.373047,0.31445 0.863281,0.19727 c 0.052,0.0119 0.05928,0.0429 0.01758,0.0781 l -1.597656,1.35157 c -0.04559,0.0381 -0.111816,0.0557 -0.166016,0.043 l -0.902343,-0.21093 c -0.0539,-0.0127 -0.05852,-0.0459 -0.01172,-0.084 l 1.640625,-1.33789 v 0.002 c 0.04276,-0.0353 0.10455,-0.0509 0.15625,-0.0391 z m -3.982422,0.30274 0.875,0.20312 c 0.0529,0.0123 0.05521,0.0456 0.0078,0.082 l -0.80664,0.61914 c -0.04947,0.0383 -0.118175,0.0557 -0.171875,0.043 l -0.892578,-0.21093 c -0.0538,-0.0126 -0.05646,-0.0464 -0.0059,-0.084 l 0.826172,-0.61328 c 0.04851,-0.0357 0.115669,-0.0513 0.167969,-0.0391 z m 0.765625,0.82031 0.894531,0.20898 c 0.0537,0.0126 0.05717,0.0477 0.0098,0.0859 l -0.806641,0.65039 c -0.04952,0.0398 -0.120881,0.058 -0.175781,0.0449 l -0.91211,-0.21679 c -0.0542,-0.0129 -0.05656,-0.0485 -0.0059,-0.0879 l 0.826172,-0.64258 c 0.04856,-0.038 0.116422,-0.0556 0.169922,-0.043 z m -2.095703,0.16992 0.898437,0.21289 c 0.0542,0.0128 0.05646,0.047 0.0059,0.0859 l -0.861329,0.66211 c -0.05284,0.0407 -0.124387,0.0601 -0.179687,0.0469 l -0.917969,-0.2207 c -0.0545,-0.0132 -0.05605,-0.0496 -0.002,-0.0898 l 0.880859,-0.6543 c 0,0 0.002,0 0.002,0 0.05157,-0.0379 0.120592,-0.0555 0.173828,-0.043 z m 3.21289,0.42383 0.908204,0.21289 c 0.0546,0.0129 0.06027,0.0485 0.01367,0.0879 l -0.794921,0.67188 c -0.04871,0.0415 -0.118029,0.0602 -0.173829,0.0469 l -0.927734,-0.22266 c -0.0553,-0.0132 -0.05967,-0.0491 -0.0098,-0.0898 l 0.814453,-0.66406 c 0.0478,-0.0386 0.115622,-0.0558 0.169922,-0.043 z m -2.449218,0.44531 0.919922,0.21875 c 0.0554,0.0132 0.05841,0.051 0.0078,0.0918 l -0.863281,0.69531 c -0.05298,0.0424 -0.126994,0.0606 -0.183594,0.0469 l -0.939453,-0.22657 c -0.056,-0.0136 -0.05811,-0.0515 -0.0039,-0.0937 l 0.884765,-0.6875 c 0.05187,-0.0403 0.122735,-0.058 0.177735,-0.0449 z m -2.183594,0.18946 0.925781,0.22265 c 0.0559,0.0134 0.05801,0.0502 0.0039,0.0918 l -0.921875,0.70898 c -0.05658,0.0434 -0.132553,0.0627 -0.189453,0.0488 l -0.947265,-0.23047 c -0.0568,-0.0139 -0.05595,-0.0527 0.002,-0.0957 l 0.943359,-0.70117 c 0.0553,-0.0412 0.128294,-0.0582 0.183594,-0.0449 z m 5.464844,0.24414 0.927734,0.2207 c 0.0559,0.0133 0.06408,0.0484 0.01758,0.0898 l -0.792969,0.70508 c -0.04866,0.0432 -0.120534,0.0626 -0.177734,0.0488 l -0.949219,-0.22852 c -0.0569,-0.0137 -0.06172,-0.051 -0.01172,-0.0937 l 0.814453,-0.69726 c 0.04776,-0.0411 0.116275,-0.0581 0.171875,-0.0449 z m -2.142578,0.19336 0.933593,0.2246 c 0.0563,0.0134 0.06152,0.0497 0.01172,0.0918 l -0.849609,0.71875 c -0.05215,0.0442 -0.126094,0.0648 -0.183594,0.0508 l -0.955078,-0.23242 c -0.0571,-0.0139 -0.05936,-0.0521 -0.0059,-0.0957 l 0.871094,-0.71094 c 0.05109,-0.042 0.121834,-0.0603 0.177735,-0.0469 z m -2.5625,0.48437 0.947265,0.23047 c 0.0573,0.0138 0.05811,0.052 0.0039,0.0957 l -0.923828,0.74414 c -0.05681,0.0454 -0.133006,0.0671 -0.191406,0.0527 l -0.970703,-0.23828 c -0.05804,-0.0143 -0.0582,-0.0544 0,-0.0996 l 0.947266,-0.73633 c 0.05552,-0.043 0.1308,-0.0626 0.1875,-0.0488 z m -2.277344,0.20898 0.953125,0.23438 c 0.05737,0.014 0.0579,0.0532 0,0.0977 l -0.990235,0.75976 c -0.06073,0.0465 -0.140518,0.0673 -0.199218,0.0527 l -0.97461,-0.24219 c -0.0587,-0.0145 -0.05624,-0.0555 0.0059,-0.10156 l 1.011718,-0.75 c 0.05925,-0.044 0.13636,-0.0648 0.19336,-0.0508 z M 53.042972,91.04102 54,91.27344 c 0.0576,0.014 0.06152,0.0514 0.01172,0.0957 L 53.16211,92.125 c -0.05218,0.0463 -0.124593,0.0672 -0.183593,0.0527 l -0.980469,-0.24023 c -0.0583,-0.0144 -0.06141,-0.0537 -0.0078,-0.0996 l 0.871094,-0.74609 c 0.05113,-0.0438 0.124341,-0.0647 0.181641,-0.0508 z m 1.857422,0.0781 0.958984,0.23047 c 0.0577,0.0139 0.06478,0.0535 0.01758,0.0977 l -0.804687,0.7539 c -0.04941,0.0462 -0.120588,0.0671 -0.179688,0.0527 l -0.982422,-0.24024 c -0.0587,-0.0143 -0.06252,-0.0538 -0.01172,-0.0996 l 0.826171,-0.74414 c 0.04851,-0.0438 0.118482,-0.0646 0.175782,-0.0508 z m -4.091797,0.13672 0.96289,0.23633 c 0.0583,0.0142 0.06121,0.0544 0.0078,0.0996 l -0.912109,0.76953 c -0.05597,0.0475 -0.132007,0.0694 -0.191407,0.0547 l -0.986328,-0.24414 c -0.0594,-0.0146 -0.06131,-0.0567 -0.0039,-0.10352 l 0.935547,-0.75977 c 0.05473,-0.0449 0.1299,-0.0668 0.1875,-0.0527 z m -2.6875,0.52734 0.978515,0.24219 c 0.0587,0.0146 0.0582,0.0566 0,0.10352 l -0.99414,0.79882 c -0.06107,0.0488 -0.140972,0.0738 -0.201172,0.0586 l -1.001953,-0.25195 c -0.0594,-0.0151 -0.05664,-0.0588 0.0059,-0.10743 l 1.017578,-0.79101 c 0.05958,-0.046 0.136813,-0.0672 0.195313,-0.0527 z m -2.378906,0.23438 0.982421,0.24609 c 0.0592,0.0147 0.05829,0.0557 -0.0039,0.10352 l -1.064453,0.8164 c -0.06536,0.0502 -0.148384,0.074 -0.208984,0.0586 l -1.007813,-0.25586 c -0.0602,-0.0153 -0.05508,-0.0578 0.01172,-0.10742 l 1.085937,-0.8086 c 0.06363,-0.0472 0.146279,-0.0674 0.205079,-0.0527 z m 5.894531,0.23047 0.988281,0.24414 c 0.0595,0.0147 0.06317,0.056 0.0098,0.10351 l -0.91211,0.81055 c -0.05609,0.0498 -0.134412,0.0738 -0.195312,0.0586 l -1.011719,-0.2539 c -0.0607,-0.0151 -0.06346,-0.0581 -0.0059,-0.10742 l 0.9375,-0.80079 c 0.05486,-0.047 0.130353,-0.0693 0.189453,-0.0547 z m 1.93164,0.0762 0.988282,0.24219 c 0.0595,0.0146 0.06623,0.0561 0.01563,0.10351 l -8.486328,7.95117 c -0.0762,0.0714 -0.174694,0.10564 -0.246094,0.0859 l -1.185547,-0.32812 c -0.0708,-0.0196 -0.06648,-0.0779 0.01172,-0.14844 l 8.716796,-7.85352 c 0.05204,-0.0469 0.126347,-0.0672 0.185547,-0.0527 z m -4.265625,0.16406 0.994141,0.2461 c 0.0596,0.0149 0.06131,0.057 0.0039,0.10546 l -0.978515,0.83008 c -0.06024,0.0512 -0.141825,0.0741 -0.203125,0.0586 l -1.017579,-0.25782 c -0.0614,-0.0154 -0.0617,-0.0591 0,-0.10937 l 1.003907,-0.81836 c 0.05879,-0.0482 0.137765,-0.0695 0.197265,-0.0547 z m -2.820312,0.57422 1.007812,0.25391 c 0.0608,0.0153 0.06065,0.0609 -0.002,0.11132 l -1.070312,0.86133 c -0.06584,0.0529 -0.150691,0.0785 -0.212891,0.0625 l -1.035156,-0.26562 c -0.0622,-0.0159 -0.05763,-0.0609 0.0098,-0.11328 l 1.095703,-0.85352 c 0.06409,-0.0496 0.146731,-0.0718 0.207031,-0.0566 z m -2.492188,0.25977 1.015625,0.25976 c 0.0609,0.0156 0.05528,0.0598 -0.01172,0.11133 l -1.144532,0.88086 c -0.07053,0.0544 -0.160056,0.0808 -0.222656,0.0645 l -1.041015,-0.27148 c -0.0622,-0.0161 -0.05452,-0.0616 0.01758,-0.11524 l 1.169922,-0.87109 h 0.002 c 0.06852,-0.0509 0.154143,-0.0741 0.214843,-0.0586 z m 6.136719,0.22265 1.019531,0.25586 c 0.0618,0.0154 0.06531,0.0602 0.0078,0.11133 l -0.982422,0.87305 c -0.06047,0.0539 -0.144131,0.0786 -0.207031,0.0625 l -1.044922,-0.26563 c -0.0625,-0.016 -0.062,-0.0621 0,-0.11523 l 1.007812,-0.86328 c 0.05902,-0.0506 0.138219,-0.0739 0.199219,-0.0586 z m -2.441406,0.26563 1.027344,0.26172 c 0.06184,0.0157 0.0618,0.061 0,0.11328 l -1.056641,0.89257 c -0.06501,0.0555 -0.151444,0.0809 -0.214844,0.0645 l -1.052734,-0.27149 c -0.0631,-0.0162 -0.06074,-0.0629 0.0059,-0.11718 l 1.082031,-0.88282 c 0.0633,-0.052 0.147585,-0.0761 0.208985,-0.0605 z m -2.96875,0.6289 1.042969,0.26953 c 0.0627,0.0162 0.05783,0.0628 -0.0098,0.11719 l -1.154297,0.93164 c -0.07119,0.0573 -0.162162,0.0853 -0.226562,0.0684 l -1.06836,-0.28125 c -0.0639,-0.0168 -0.05913,-0.0664 0.01367,-0.12304 L 44.498014,94.502 c 0.06914,-0.0537 0.15645,-0.0786 0.21875,-0.0625 z m -2.615235,0.29102 1.048829,0.27344 c 0.0632,0.0165 0.05678,0.0634 -0.01563,0.11914 l -1.240235,0.95312 c -0.07635,0.0587 -0.169575,0.0875 -0.234375,0.0703 l -1.076172,-0.2871 c -0.0643,-0.0171 -0.05456,-0.067 0.02344,-0.125 l 1.265625,-0.93946 c 0.074,-0.0553 0.165816,-0.0808 0.228515,-0.0645 z m 6.400391,0.21094 1.054688,0.26953 c 0.063,0.0163 0.06405,0.0639 0.002,0.11914 l -1.0625,0.94531 c -0.06538,0.0582 -0.151697,0.0854 -0.216797,0.0684 l -1.082031,-0.2832 c -0.0648,-0.0169 -0.06309,-0.0657 0.0039,-0.12305 l 1.089844,-0.93359 c 0.06366,-0.0548 0.147837,-0.0787 0.210937,-0.0625 z m -2.560547,0.29687 1.060547,0.27539 c 0.0635,0.0166 0.06289,0.0647 -0.0039,0.1211 l -1.142578,0.96679 c -0.07037,0.0595 -0.160963,0.0876 -0.226563,0.0703 l -1.089844,-0.28711 c -0.0651,-0.0172 -0.06038,-0.0682 0.01172,-0.12696 l 1.169922,-0.95508 c 0.06837,-0.0554 0.157203,-0.081 0.220703,-0.0644 z m -3.132812,0.68945 1.078125,0.28516 c 0.0649,0.0171 0.05943,0.068 -0.01367,0.12695 l -1.251953,1.00782 c -0.07721,0.0622 -0.173635,0.0921 -0.240235,0.0742 L 41.275391,97.125 c -0.0661,-0.0178 -0.05752,-0.0714 0.02148,-0.13281 l 1.279297,-0.9961 c 0.07481,-0.0582 0.167922,-0.0854 0.232422,-0.0684 z m -2.751953,0.32422 1.085937,0.29102 c 0.0654,0.0175 0.05702,0.0686 -0.02148,0.12891 l -1.34375,1.0332 c -0.08291,0.0638 -0.1829,0.0945 -0.25,0.0762 l -1.115235,-0.30273 c -0.0666,-0.0181 -0.05345,-0.0738 0.03125,-0.13672 l 1.373047,-1.01953 c 0.08016,-0.0596 0.175335,-0.0876 0.240235,-0.0703 z m 6.689453,0.19727 1.089844,0.28711 c 0.066,0.0172 0.06525,0.0673 -0.002,0.12695 l -1.15039,1.02344 c -0.07092,0.0631 -0.162969,0.0922 -0.230469,0.0742 L 45.333941,97.6621 c -0.0667,-0.0179 -0.06293,-0.0706 0.0098,-0.13281 l 1.177734,-1.00977 c 0,0 0.002,0 0.002,0 0.06869,-0.0582 0.15788,-0.0873 0.222656,-0.0703 z m -2.69336,0.33203 1.09961,0.29297 c 0.0662,0.0176 0.06253,0.0697 -0.0098,0.13086 l -1.240234,1.04687 c -0.07642,0.0646 -0.172335,0.0965 -0.240235,0.0781 l -1.128906,-0.30664 c -0.0675,-0.0182 -0.05867,-0.0729 0.01953,-0.13672 l 1.267578,-1.0332 c 0.07406,-0.0604 0.166722,-0.0898 0.232422,-0.0723 z m -3.310546,0.75977 1.115234,0.30078 c 0.0672,0.0182 0.05987,0.0727 -0.01953,0.13672 l -1.361329,1.09765 c -0.08402,0.0677 -0.186759,0.0992 -0.255859,0.0801 l -1.146484,-0.31641 c -0.0685,-0.0189 -0.0566,-0.0758 0.0293,-0.14257 l 1.392578,-1.08204 c 0.0812,-0.0631 0.179394,-0.0923 0.246094,-0.0742 z m -2.900391,0.36328 1.123047,0.30664 c 0.0677,0.0186 0.056,0.075 -0.0293,0.14062 l -1.462891,1.125 c -0.09035,0.0695 -0.197978,0.10339 -0.267578,0.084 L 36.050781,99.2383 c -0.06901,-0.0193 -0.05314,-0.078 0.03906,-0.14648 l 1.49414,-1.11133 c 0.08712,-0.0648 0.190613,-0.0946 0.257813,-0.0762 z m 7,0.17968 1.130859,0.30469 c 0.068,0.0183 0.06509,0.0718 -0.0078,0.13672 l -1.25,1.11328 c -0.07718,0.0686 -0.176094,0.10123 -0.246094,0.082 l -1.162109,-0.31836 c -0.0695,-0.019 -0.06347,-0.0768 0.01563,-0.14453 l 1.283203,-1.09765 c 0.07478,-0.064 0.168728,-0.0944 0.236328,-0.0762 z m -2.835938,0.37305 1.138672,0.30859 c 0.0686,0.0187 0.06102,0.0761 -0.01758,0.14258 l -1.347656,1.14063 c -0.08328,0.0705 -0.185359,0.10358 -0.255859,0.084 l -1.171876,-0.32422 c -0.07,-0.0194 -0.05981,-0.0789 0.02539,-0.14843 l 1.380859,-1.125 c 0.08049,-0.0657 0.179947,-0.0966 0.248047,-0.0781 z m -3.511718,0.83594 1.158203,0.32226 c 0.0697,0.0194 0.0572,0.0768 -0.0293,0.14649 l -1.484375,1.19726 c -0.09179,0.0739 -0.201738,0.11015 -0.273438,0.0898 l -1.189453,-0.33789 c -0.07111,-0.0202 -0.05474,-0.0813 0.03906,-0.1543 l 1.517578,-1.18164 c 0.08845,-0.0688 0.192519,-0.10123 0.261719,-0.082 z m -3.066407,0.4082 1.166016,0.32813 c 0.07017,0.0198 0.05404,0.0807 -0.03906,0.15234 l -1.597657,1.22852 c -0.09884,0.0759 -0.212956,0.11455 -0.285156,0.0937 l -1.199219,-0.34571 c -0.07159,-0.0206 -0.05205,-0.0851 0.04883,-0.16015 l 1.632813,-1.21094 c 0.09503,-0.0706 0.203737,-0.10554 0.273437,-0.0859 z m 7.345704,0.16016 1.171874,0.32226 c 0.0706,0.0195 0.06583,0.0797 -0.01367,0.15039 l -1.365235,1.21485 c -0.08431,0.075 -0.189019,0.11034 -0.261718,0.0898 L 41.09766,101.2988 c -0.0721,-0.0203 -0.06101,-0.0823 0.02539,-0.15625 l 1.398437,-1.19727 c 0.08146,-0.0698 0.181854,-0.10328 0.251954,-0.084 z m -2.996094,0.41797 1.179687,0.33008 c 0.0711,0.0199 0.06236,0.0817 -0.02344,0.15429 l -1.47461,1.2461 c -0.09111,0.077 -0.200237,0.11465 -0.273437,0.0937 l -1.214844,-0.34766 c -0.07262,-0.0207 -0.05804,-0.0842 0.03516,-0.16016 l 1.507813,-1.23047 c 0.08781,-0.0716 0.193072,-0.10563 0.263672,-0.0859 z m 4.347656,0.57812 1.197266,0.33203 c 0.0721,0.02 0.06873,0.0827 -0.0098,0.15625 l -1.347656,1.26368 c -0.08337,0.0781 -0.189472,0.1168 -0.263672,0.0957 l -1.232422,-0.34961 c -0.0736,-0.0209 -0.06597,-0.087 0.01953,-0.16406 l 1.384766,-1.2461 c 0.08057,-0.0726 0.180353,-0.10779 0.251953,-0.0879 z m -8.082031,0.34766 1.201172,0.34375 c 0.07233,0.0207 0.05759,0.0858 -0.03711,0.16211 l -1.626953,1.31054 c -0.10068,0.0811 -0.218469,0.12141 -0.292969,0.0996 l -1.236328,-0.36132 c -0.07388,-0.0216 -0.05401,-0.0899 0.04883,-0.16993 l 1.66211,-1.29296 c 0.09671,-0.0752 0.20945,-0.1123 0.28125,-0.0918 z M 32.791016,101.66602 34,102.01758 c 0.07288,0.0211 0.05512,0.0876 -0.04687,0.16601 l -1.753906,1.34766 c -0.10861,0.0835 -0.231541,0.12386 -0.306641,0.10156 l -1.246094,-0.36914 c -0.07437,-0.0221 -0.04828,-0.0915 0.0625,-0.17383 l 1.789063,-1.33007 c 0.10407,-0.0773 0.220669,-0.11475 0.292969,-0.0937 z m 7.724609,0.13476 1.216797,0.3457 c 0.0734,0.0208 0.06552,0.0848 -0.02148,0.16211 l -1.494141,1.33008 c -0.09248,0.0822 -0.20565,0.12151 -0.28125,0.0996 l -1.25391,-0.36327 c -0.07499,-0.0217 -0.0615,-0.0908 0.0332,-0.17188 l 1.53125,-1.31054 c 0.08907,-0.0763 0.196731,-0.1124 0.269531,-0.0918 z m -3.175781,0.4707 1.228515,0.35352 c 0.0739,0.0213 0.0608,0.0885 -0.0332,0.16797 l -1.617187,1.36719 c -0.10011,0.0847 -0.218822,0.12591 -0.294922,0.10351 l -1.263672,-0.37305 c -0.07549,-0.0222 -0.05745,-0.0923 0.04492,-0.17578 l 1.654297,-1.34765 c 0.09616,-0.0784 0.20795,-0.11681 0.28125,-0.0957 z m 4.550781,0.60547 1.244141,0.35547 c 0.075,0.0214 0.06842,0.0893 -0.01758,0.16992 l -1.478516,1.38672 c -0.0916,0.0859 -0.205903,0.12807 -0.283203,0.10547 l -1.28125,-0.375 c -0.07669,-0.0224 -0.06666,-0.0951 0.02734,-0.17969 l 1.517579,-1.36523 c 0.08825,-0.0795 0.197084,-0.11896 0.271484,-0.0977 z m -8.535156,0.42383 1.248047,0.36914 c 0.07523,0.0222 0.0571,0.092 -0.04687,0.17578 l -1.791016,1.44141 c -0.11094,0.0893 -0.236953,0.13473 -0.314453,0.11133 l -1.285156,-0.38867 c -0.07689,-0.0232 -0.05271,-0.0975 0.06055,-0.18555 l 1.828126,-1.42188 c 0.10619,-0.0826 0.226181,-0.12356 0.300781,-0.10156 z m -3.457031,0.52149 1.255859,0.37695 c 0.07587,0.0227 0.05167,0.0953 -0.06055,0.18164 l -1.931641,1.48633 c -0.11987,0.0921 -0.252078,0.13728 -0.330078,0.11328 l -1.296875,-0.39844 c -0.07739,-0.0238 -0.04606,-0.1006 0.07617,-0.19141 l 1.970703,-1.46484 c 0.11445,-0.0851 0.241307,-0.12601 0.316407,-0.10351 z m 8.142578,0.10351 1.267578,0.36914 c 0.07629,0.0223 0.0623,0.0948 -0.0332,0.17969 l -1.642579,1.46094 c -0.1019,0.0906 -0.224034,0.13688 -0.302734,0.11328 l -1.304687,-0.39063 c -0.07807,-0.0234 -0.06134,-0.10015 0.04297,-0.18945 l 1.683594,-1.44141 c 0.0978,-0.0837 0.213363,-0.12366 0.289063,-0.10156 z m -3.373047,0.53125 1.27539,0.37891 c 0.0769,0.0228 0.06047,0.0961 -0.04297,0.18359 l -1.78125,1.50781 c -0.1105,0.0935 -0.23906,0.13944 -0.31836,0.11524 l -1.316406,-0.40039 c -0.07867,-0.0239 -0.05435,-0.10126 0.05859,-0.19336 l 1.820312,-1.48633 c 0.10576,-0.0862 0.228388,-0.12817 0.304688,-0.10547 z m 5.728515,0.95508 0.390625,0.11523 c 0.0263,0.008 0.01002,0.0486 -0.02148,0.0781 l -1.794922,1.68164 c -0.03378,0.0317 -0.08638,0.0529 -0.113281,0.0449 l -0.402344,-0.12109 c -0.0272,-0.008 -0.03019,-0.0466 0.0039,-0.0781 l 1.810547,-1.67383 c 0.03173,-0.0294 0.100953,-0.0549 0.126953,-0.0469 z m -9.998046,0.19531 1.300781,0.39649 c 0.0784,0.0238 0.0542,0.10096 -0.06055,0.19336 l -1.978516,1.59375 c -0.12283,0.0989 -0.259044,0.14834 -0.339844,0.12304 l -1.339843,-0.41992 c -0.08005,-0.025 -0.05112,-0.10562 0.07422,-0.20312 l 2.019531,-1.57227 c 0.11714,-0.0911 0.246618,-0.13493 0.324219,-0.11133 z m -3.689454,0.5918 1.308594,0.4043 c 0.07892,0.0244 0.04791,0.10577 -0.07617,0.20117 l -3.958984,3.04297 c -0.14037,0.10798 -0.289947,0.16176 -0.373047,0.13476 l -1.376953,-0.44726 c -0.08234,-0.0268 -0.04144,-0.11641 0.101562,-0.22266 l 4.033204,-2.99805 c 0.126479,-0.0939 0.263696,-0.13943 0.341796,-0.11523 z m 8.609375,0.0645 1.320313,0.39844 c 0.07952,0.024 0.06244,0.10161 -0.04297,0.19531 l -5.833984,5.18946 c -0.12917,0.1149 -0.272575,0.17273 -0.359375,0.14453 l -1.439453,-0.46875 c -0.08597,-0.0279 -0.05589,-0.1213 0.07617,-0.23438 l 5.96875,-5.11133 c 0.10789,-0.0924 0.231747,-0.13708 0.310547,-0.11328 z m -3.597656,0.60352 1.330078,0.4082 c 0.08013,0.0246 0.05774,0.10643 -0.05664,0.20313 l -4.523438,3.82421 c -0.13303,0.11252 -0.277681,0.16843 -0.363281,0.14063 L 26.6875,110.98242 c -0.08467,-0.0275 -0.04991,-0.11971 0.08594,-0.23047 l 4.621093,-3.76757 c 0.11688,-0.0953 0.246772,-0.14159 0.326172,-0.11719 z m 4.929688,0.68359 0.404297,0.12305 c 0.0272,0.008 0.01001,0.0556 -0.02539,0.0879 l -2.021485,1.84375 c -0.03809,0.0347 -0.0971,0.0578 -0.125,0.0488 l -0.417968,-0.13086 c -0.0278,-0.009 -0.02668,-0.0494 0.01172,-0.084 l 2.03711,-1.83593 c 0.0357,-0.0322 0.109819,-0.0607 0.136719,-0.0527 z m 1.082031,0.33008 0.40625,0.12305 c 0.0274,0.008 0.0095,0.0552 -0.02539,0.0879 L 36.125,109.95508 c -0.0375,0.0351 -0.09495,0.0578 -0.123047,0.0488 l -0.419922,-0.13086 c -0.0278,-0.009 -0.02803,-0.0509 0.0098,-0.0859 l 2.003906,-1.85352 c 0.03513,-0.0325 0.109619,-0.0607 0.136719,-0.0527 z m -10.601563,0.27539 1.353516,0.42773 c 0.08162,0.0258 0.05111,0.1123 -0.07617,0.21485 l -2.199219,1.77148 c -0.13676,0.11021 -0.282787,0.16412 -0.367187,0.13672 l -1.398438,-0.45312 c -0.08354,-0.0272 -0.04573,-0.11809 0.09375,-0.22657 l 2.242188,-1.74414 c 0.12988,-0.10096 0.270662,-0.15245 0.351562,-0.12695 z m 7.646485,2.46094 0.425781,0.13276 c 0.0287,0.009 0.0074,0.0614 -0.03125,0.0977 l -2.214844,2.07422 c -0.04183,0.0392 -0.103412,0.0666 -0.132812,0.0566 l -0.439453,-0.14454 c -0.0292,-0.01 -0.02853,-0.0547 0.01367,-0.0937 l 2.232421,-2.06445 c 0.03904,-0.0362 0.118185,-0.0676 0.146485,-0.0586 z"
       style="fill:url(#linearGradient7385);fill-opacity:1;stroke-width:1.06886816"
       inkscape:connector-curvature="0" />
    <path
       style="fill:#000000"
       d="m 70.28117,87.75224 c -0.02824,-0.0879 -0.241814,-0.16427 -0.457849,-0.16427 0,0 -12.692075,0 -12.692075,0 -0.216035,0 -0.424055,0.0764 -0.445906,0.16427 0,0 -7.816414,31.43879 -7.816414,31.43879 -0.118859,0.47807 0.223847,0.90321 0.736313,0.90321 0,0 30.107343,0 30.107343,0 0.512466,0 0.824263,-0.42514 0.670648,-0.90321 0,0 -10.10206,-31.43879 -10.10206,-31.43879 m -1.488746,0.56439 c 0,0 0.149672,0.59175 0.149672,0.59175 0.0092,0.0364 -0.04179,0.0608 -0.127527,0.0608 0,0 -1.42894,0 -1.42894,0 -0.08574,0 -0.147386,-0.0243 -0.154106,-0.0608 0,0 -0.1092,-0.59175 -0.1092,-0.59175 -0.0064,-0.0346 0.0449,-0.0576 0.12821,-0.0576 0,0 1.388465,0 1.388465,0 0.08331,0 0.14467,0.023 0.153426,0.0576 0,0 0,0 0,0 m 0.243008,0.96077 c 0,0 0.161836,0.63985 0.161836,0.63985 0.01,0.0394 -0.04283,0.0658 -0.132039,0.0658 0,0 -1.486725,0 -1.486725,0 -0.0892,0 -0.153534,-0.0263 -0.160808,-0.0658 0,0 -0.118075,-0.63985 -0.118075,-0.63985 -0.0069,-0.0374 0.04623,-0.0623 0.132807,-0.0623 0,0 1.442961,0 1.442961,0 0.08658,0 0.150586,0.0249 0.160043,0.0623 0,0 0,0 0,0 m 0.262915,1.03947 c 0,0 0.175545,0.69405 0.175545,0.69405 0.01083,0.0428 -0.04391,0.0714 -0.136875,0.0714 0,0 -1.549381,0 -1.549381,0 -0.09296,0 -0.160218,-0.0286 -0.168117,-0.0714 0,0 -0.128077,-0.69405 -0.128077,-0.69405 -0.0075,-0.0405 0.04763,-0.0674 0.137743,-0.0674 0,0 1.50191,0 1.50191,0 0.09011,0 0.157005,0.0269 0.167252,0.0674 0,0 0,0 0,0 m 0.285371,1.12826 c 0,0 0.191073,0.75544 0.191073,0.75544 0.0118,0.0466 -0.04502,0.0778 -0.14207,0.0778 0,0 -1.61755,0 -1.61755,0 -0.09705,0 -0.16751,-0.0312 -0.176118,-0.0778 0,0 -0.139406,-0.75544 -0.139406,-0.75544 -0.0081,-0.0441 0.0491,-0.0733 0.143056,-0.0733 0,0 1.565879,0 1.565879,0 0.09395,0 0.163995,0.0293 0.175136,0.0733 0,0 0,0 0,0 m 0.310832,1.22892 c 0,0 0.208757,0.82535 0.208757,0.82535 0.01291,0.051 -0.04614,0.0851 -0.147663,0.0851 0,0 -1.691995,0 -1.691995,0 -0.10152,0 -0.175495,-0.0341 -0.184912,-0.0851 0,0 -0.152308,-0.82535 -0.152308,-0.82535 -0.0089,-0.0481 0.05066,-0.08 0.148789,-0.08 0,0 1.63554,0 1.63554,0 0.09813,0 0.171636,0.0319 0.183792,0.08 0,0 0,0 0,0 m 0.33986,1.34369 c 0,0 0.229014,0.90544 0.229014,0.90544 0.01418,0.0561 -0.04728,0.0935 -0.153701,0.0935 0,0 -1.773621,0 -1.773621,0 -0.106417,0 -0.18428,-0.0375 -0.194625,-0.0935 0,0 -0.167088,-0.90544 -0.167088,-0.90544 -0.0097,-0.0526 0.05229,-0.0876 0.154995,-0.0876 0,0 1.711688,0 1.711688,0 0.102702,0 0.180021,0.035 0.193338,0.0876 0,0 0,0 0,0 m 0.373153,1.47531 c 0,0 0.252371,0.99779 0.252371,0.99779 0.01565,0.0619 -0.04842,0.10326 -0.160236,0.10326 0,0 -1.863523,0 -1.863523,0 -0.111811,0 -0.193989,-0.0414 -0.205407,-0.10326 0,0 -0.184128,-0.99779 -0.184128,-0.99779 -0.01069,-0.0579 0.05402,-0.0964 0.161733,-0.0964 0,0 1.795273,0 1.795273,0 0.107717,0 0.189266,0.0385 0.203917,0.0964 0,0 0,0 0,0 m 0.411592,1.62729 c 0,0 0.279491,1.10501 0.279491,1.10501 0.01736,0.0686 -0.04955,0.11456 -0.167328,0.11456 0,0 -1.963025,0 -1.963025,0 -0.117782,0 -0.204776,-0.0459 -0.217443,-0.11456 0,0 -0.203915,-1.10501 -0.203915,-1.10501 -0.01182,-0.064 0.05583,-0.1066 0.169072,-0.1066 0,0 1.887441,0 1.887441,0 0.113247,0 0.199509,0.0426 0.215707,0.1066 0,0 0,0 0,0 m 0.456291,1.80402 c 0,0 0.31123,1.23049 0.31123,1.23049 0.01937,0.0766 -0.05062,0.12782 -0.175045,0.12782 0,0 -2.073753,0 -2.073753,0 -0.124425,0 -0.216831,-0.0512 -0.230963,-0.12782 0,0 -0.227072,-1.23049 -0.227072,-1.23049 -0.01313,-0.0712 0.05772,-0.11847 0.177096,-0.11847 0,0 1.989583,0 1.989583,0 0.119375,0 0.21092,0.0473 0.228924,0.11847 0,0 0,0 0,0 m 0.50869,2.01118 c 0,0 0.3487,1.37864 0.3487,1.37864 0.02175,0.086 -0.0516,0.14353 -0.183468,0.14353 0,0 -2.197719,0 -2.197719,0 -0.131863,0 -0.23039,-0.0575 -0.246258,-0.14353 0,0 -0.25441,-1.37864 -0.25441,-1.37864 -0.01469,-0.0796 0.0597,-0.13244 0.185901,-0.13244 0,0 2.103414,0 2.103414,0 0.126205,0 0.223712,0.0529 0.24384,0.13244 0,0 0,0 0,0 m 0.570666,2.25621 c 0,0 0.393369,1.55524 0.393369,1.55524 0.02459,0.0972 -0.05244,0.16233 -0.192689,0.16233 0,0 -2.337447,0 -2.337447,0 -0.140247,0 -0.245755,-0.0651 -0.263699,-0.16233 0,0 -0.287,-1.55524 -0.287,-1.55524 -0.01653,-0.0896 0.06174,-0.14903 0.195603,-0.14903 0,0 2.231061,0 2.231061,0 0.133863,0 0.23815,0.0595 0.260802,0.14903 0,0 0,0 0,0 m 0.644701,2.54892 c 0,0 0.447206,1.7681 0.447206,1.7681 0.02804,0.11085 -0.05304,0.18506 -0.202806,0.18506 0,0 -2.496151,0 -2.496151,0 -0.149769,0 -0.26331,-0.0742 -0.283766,-0.18506 0,0 -0.32628,-1.7681 -0.32628,-1.7681 -0.01874,-0.10154 0.06383,-0.16895 0.206342,-0.16895 0,0 2.3752,0 2.3752,0 0.142512,0 0.254573,0.0674 0.280255,0.16895 0,0 0,0 0,0 m 0.734143,2.90255 c 0,0 0.512906,2.02785 0.512906,2.02785 0.03226,0.12753 -0.05326,0.21294 -0.213938,0.21294 0,0 -2.677974,0 -2.677974,0 -0.160678,0 -0.283558,-0.0854 -0.307092,-0.21294 0,0 -0.374214,-2.02785 -0.374214,-2.02785 -0.02142,-0.1161 0.06593,-0.19316 0.218281,-0.19316 0,0 2.539251,0 2.539251,0 0.152355,0 0.273417,0.0771 0.30278,0.19316 0,0 0,0 0,0 m 0.843588,3.33525 c 0,0 1.113116,4.40087 1.113116,4.40087 0.04062,0.16061 -0.05241,0.26823 -0.232802,0.26823 0,0 -3.006466,0 -3.006466,0 -0.180388,0 -0.320507,-0.10762 -0.350146,-0.26823 0,0 -0.812125,-4.40087 -0.812125,-4.40087 -0.02473,-0.13402 0.06796,-0.22296 0.231622,-0.22296 0,0 2.727645,0 2.727645,0 0.163659,0 0.295258,0.0889 0.329156,0.22296 0,0 0,0 0,0 M 66.565623,88.31663 c 0,0 0.175682,1.08621 0.175682,1.08621 0.0061,0.0379 -0.04807,0.0632 -0.135506,0.0632 0,0 -1.45726,0 -1.45726,0 -0.08744,0 -0.148089,-0.0253 -0.151625,-0.0632 0,0 -0.101392,-1.08621 -0.101392,-1.08621 -0.0032,-0.0346 0.05016,-0.0576 0.133466,-0.0576 0,0 1.388466,0 1.388466,0 0.08331,0 0.14257,0.023 0.148169,0.0576 0,0 0,0 0,0 m 0.237769,1.47008 c 0,0 0.107737,0.66612 0.107737,0.66612 0.0066,0.0411 -0.04962,0.0685 -0.140661,0.0685 0,0 -1.517407,0 -1.517407,0 -0.09104,0 -0.154302,-0.0274 -0.158135,-0.0685 0,0 -0.06218,-0.66612 -0.06218,-0.66612 -0.0036,-0.0389 0.05283,-0.0648 0.141138,-0.0648 0,0 1.471845,0 1.471845,0 0.08831,0 0.151369,0.0259 0.157662,0.0648 0,0 0,0 0,0 m 0.175082,1.0825 c 0,0 0.117062,0.72376 0.117062,0.72376 0.0072,0.0447 -0.05126,0.0745 -0.146221,0.0745 0,0 -1.582732,0 -1.582732,0 -0.09496,0 -0.16106,-0.0299 -0.165229,-0.0745 0,0 -0.06756,-0.72376 -0.06756,-0.72376 -0.0039,-0.0422 0.05477,-0.0703 0.146761,-0.0703 0,0 1.533227,0 1.533227,0 0.09199,0 0.157864,0.0281 0.164693,0.0703 0,0 0,0 0,0 m 0.190363,1.17697 c 0,0 0.127651,0.78924 0.127651,0.78924 0.0079,0.0488 -0.053,0.0814 -0.152234,0.0814 0,0 -1.653935,0 -1.653935,0 -0.09924,0 -0.168437,-0.0326 -0.172989,-0.0814 0,0 -0.07367,-0.78924 -0.07367,-0.78924 -0.0043,-0.046 0.05685,-0.0766 0.152848,-0.0766 0,0 1.599952,0 1.599952,0 0.096,0 0.16494,0.0306 0.172378,0.0766 0,0 0,0 0,0 m 0.207736,1.28439 c 0,0 0.139744,0.864 0.139744,0.864 0.0086,0.0535 -0.05485,0.0892 -0.158758,0.0892 0,0 -1.731847,0 -1.731847,0 -0.103911,0 -0.176521,-0.0357 -0.181511,-0.0892 0,0 -0.08065,-0.864 -0.08065,-0.864 -0.0047,-0.0503 0.0591,-0.0837 0.159462,-0.0837 0,0 1.672749,0 1.672749,0 0.100364,0 0.17268,0.0334 0.180812,0.0837 0,0 0,0 0,0 m 0.227599,1.40719 c 0,0 0.153641,0.94993 0.153641,0.94993 0.0095,0.0589 -0.05681,0.0982 -0.16586,0.0982 0,0 -1.817461,0 -1.817461,0 -0.109048,0 -0.18542,-0.0393 -0.190915,-0.0982 0,0 -0.08867,-0.94993 -0.08867,-0.94993 -0.0052,-0.0552 0.06152,-0.0919 0.166671,-0.0919 0,0 1.752485,0 1.752485,0 0.10515,0 0.181183,0.0367 0.19011,0.0919 0,0 0,0 0,0 m 0.250455,1.54851 c 0,0 0.16972,1.04935 0.16972,1.04935 0.01053,0.0651 -0.0589,0.10868 -0.173619,0.10868 0,0 -1.911981,0 -1.911981,0 -0.114719,0 -0.195264,-0.0436 -0.201343,-0.10868 0,0 -0.09795,-1.04935 -0.09795,-1.04935 -0.0057,-0.0609 0.06415,-0.10132 0.174562,-0.10132 0,0 1.840204,0 1.840204,0 0.110412,0 0.190563,0.0404 0.200409,0.10132 0,0 0,0 0,0 m 0.276935,1.71224 c 0,0 0.188462,1.16522 0.188462,1.16522 0.01172,0.0725 -0.06112,0.12092 -0.18213,0.12092 0,0 -2.01687,0 -2.01687,0 -0.121012,0 -0.206211,-0.0485 -0.212974,-0.12092 0,0 -0.108768,-1.16522 -0.108768,-1.16522 -0.0063,-0.0675 0.067,-0.1123 0.183233,-0.1123 0,0 1.937167,0 1.937167,0 0.11623,0 0.200968,0.0448 0.21188,0.1123 0,0 0,0 0,0 m 0.307851,1.90337 c 0,0 0.210489,1.30141 0.210489,1.30141 0.01311,0.0811 -0.06347,0.13534 -0.191505,0.13534 0,0 -2.133936,0 -2.133936,0 -0.128037,0 -0.218458,-0.0542 -0.226027,-0.13534 0,0 -0.121481,-1.30141 -0.121481,-1.30141 -0.007,-0.0752 0.07011,-0.12516 0.192808,-0.12516 0,0 2.044916,0 2.044916,0 0.122695,0 0.212573,0.05 0.224736,0.12516 0,0 0,0 0,0 m 0.344248,2.12842 c 0,0 0.236617,1.46295 0.236617,1.46295 0.01478,0.0914 -0.06595,0.1525 -0.201879,0.1525 0,0 -2.26543,0 -2.26543,0 -0.135926,0 -0.23225,-0.0612 -0.240778,-0.1525 0,0 -0.13656,-1.46295 -0.13656,-1.46295 -0.0079,-0.0844 0.07351,-0.14037 0.203433,-0.14037 0,0 2.165358,0 2.165358,0 0.129922,0 0.225597,0.056 0.239239,0.14037 0,0 0,0 0,0 m 0.387507,2.39587 c 0,0 0.26793,1.65656 0.26793,1.65656 0.01677,0.10371 -0.06857,0.17313 -0.213417,0.17313 0,0 -2.414193,0 -2.414193,0 -0.144852,0 -0.2479,-0.0694 -0.257581,-0.17313 0,0 -0.154632,-1.65656 -0.154632,-1.65656 -0.0089,-0.0953 0.07724,-0.15852 0.21529,-0.15852 0,0 2.300876,0 2.300876,0 0.138052,0 0.240319,0.0633 0.255727,0.15852 0,0 0,0 0,0 m 0.439466,2.71713 c 0,0 0.305898,1.8913 0.305898,1.8913 0.01921,0.11875 -0.07129,0.19827 -0.226319,0.19827 0,0 -2.583868,0 -2.583868,0 -0.155032,0 -0.265809,-0.0795 -0.276894,-0.19827 0,0 -0.176544,-1.8913 -0.176544,-1.8913 -0.01012,-0.10845 0.08133,-0.18045 0.228604,-0.18045 0,0 2.454488,0 2.454488,0 0.14727,0 0.257094,0.072 0.274635,0.18045 0,0 0,0 0,0 m 0.502625,3.10762 c 0,0 0.352549,2.17974 0.352549,2.17974 0.02221,0.13732 -0.07408,0.2293 -0.240832,0.2293 0,0 -2.779194,0 -2.779194,0 -0.166751,0 -0.286505,-0.092 -0.299323,-0.2293 0,0 -0.203469,-2.17974 -0.203469,-2.17974 -0.01163,-0.12457 0.08586,-0.20725 0.243662,-0.20725 0,0 2.630078,0 2.630078,0 0.157805,0 0.276381,0.0827 0.296529,0.20725 0,0 0,0 0,0 m 0.580456,3.58884 c 0,0 0.410749,2.53958 0.410749,2.53958 0.02598,0.16061 -0.07687,0.26823 -0.257262,0.26823 0,0 -3.006467,0 -3.006467,0 -0.180388,0 -0.310693,-0.10762 -0.325685,-0.26823 0,0 -0.237058,-2.53958 -0.237058,-2.53958 -0.0135,-0.14458 0.09086,-0.2405 0.260823,-0.2405 0,0 2.832728,0 2.832728,0 0.169964,0 0.298788,0.0959 0.322172,0.2405 0,0 0,0 0,0 M 64.338826,88.31663 c 0,0 0.09459,1.34085 0.09459,1.34085 0.0027,0.0386 -0.05433,0.0645 -0.142638,0.0645 0,0 -1.471845,0 -1.471845,0 -0.08831,0 -0.14724,-0.0258 -0.147323,-0.0645 0,0 -0.0029,-1.34085 -0.0029,-1.34085 -7.5e-5,-0.0346 0.05541,-0.0576 0.138722,-0.0576 0,0 1.388466,0 1.388466,0 0.08331,0 0.14047,0.023 0.142912,0.0576 0,0 0,0 0,0 m 0.122222,1.73247 c 0,0 0.04796,0.67987 0.04796,0.67987 0.003,0.0419 -0.05639,0.0699 -0.148389,0.0699 0,0 -1.533227,0 -1.533227,0 -0.09199,0 -0.153383,-0.028 -0.153474,-0.0699 0,0 -0.0015,-0.67987 -0.0015,-0.67987 -8.5e-5,-0.0397 0.05933,-0.0661 0.14853,-0.0661 0,0 1.486726,0 1.486726,0 0.0892,0 0.150535,0.0264 0.153335,0.0661 0,0 0,0 0,0 m 0.07796,1.10503 c 0,0 0.05216,0.73934 0.05216,0.73934 0.0032,0.0456 -0.05863,0.0762 -0.154623,0.0762 0,0 -1.599952,0 -1.599952,0 -0.096,0 -0.160061,-0.0305 -0.160159,-0.0762 0,0 -0.0016,-0.73934 -0.0016,-0.73934 -9.3e-5,-0.0431 0.06182,-0.0718 0.154784,-0.0718 0,0 1.549381,0 1.549381,0 0.09296,0 0.156961,0.0287 0.160003,0.0718 0,0 0,0 0,0 m 0.08483,1.20252 c 0,0 0.05693,0.80699 0.05693,0.80699 0.0035,0.0499 -0.06104,0.0832 -0.161404,0.0832 0,0 -1.672749,0 -1.672749,0 -0.100364,0 -0.167346,-0.0333 -0.167454,-0.0832 0,0 -0.0017,-0.80699 -0.0017,-0.80699 -1.01e-4,-0.047 0.06453,-0.0783 0.161587,-0.0783 0,0 1.61755,0 1.61755,0 0.09705,0 0.16396,0.0312 0.167276,0.0783 0,0 0,0 0,0 m 0.09267,1.31354 c 0,0 0.06239,0.88436 0.06239,0.88436 0.0039,0.0547 -0.06365,0.0913 -0.168805,0.0913 0,0 -1.752485,0 -1.752485,0 -0.105149,0 -0.175327,-0.0366 -0.175445,-0.0913 0,0 -0.0019,-0.88436 -0.0019,-0.88436 -1.1e-4,-0.0514 0.0675,-0.0856 0.169015,-0.0856 0,0 1.691995,0 1.691995,0 0.10152,0 0.171612,0.0342 0.175241,0.0856 0,0 0,0 0,0 m 0.101635,1.44065 c 0,0 0.06867,0.97342 0.06867,0.97342 0.0043,0.0603 -0.06651,0.10069 -0.176917,0.10069 0,0 -1.840204,0 -1.840204,0 -0.110412,0 -0.184107,-0.0404 -0.184237,-0.10069 0,0 -0.0021,-0.97342 -0.0021,-0.97342 -1.21e-4,-0.0565 0.07074,-0.0941 0.17716,-0.0941 0,0 1.773621,0 1.773621,0 0.106417,0 0.180013,0.0376 0.184002,0.0941 0,0 0,0 0,0 m 0.11197,1.58717 c 0,0 0.07595,1.07663 0.07595,1.07663 0.0047,0.0668 -0.06962,0.11157 -0.185847,0.11157 0,0 -1.937166,0 -1.937166,0 -0.11623,0 -0.193813,-0.0447 -0.193957,-0.11157 0,0 -0.0023,-1.07663 -0.0023,-1.07663 -1.35e-4,-0.0624 0.07432,-0.10391 0.186128,-0.10391 0,0 1.863523,0 1.863523,0 0.111812,0 0.189279,0.0415 0.193683,0.10391 0,0 0,0 0,0 m 0.123969,1.75722 c 0,0 0.08446,1.19719 0.08446,1.19719 0.0053,0.0745 -0.07303,0.1243 -0.195722,0.1243 0,0 -2.044916,0 -2.044916,0 -0.122695,0 -0.204599,-0.0498 -0.20476,-0.1243 0,0 -0.0026,-1.19719 -0.0026,-1.19719 -1.5e-4,-0.0693 0.07827,-0.11532 0.196054,-0.11532 0,0 1.963025,0 1.963025,0 0.117782,0 0.19955,0.046 0.204439,0.11532 0,0 0,0 0,0 m 0.138002,1.95617 c 0,0 0.09448,1.33919 0.09448,1.33919 0.0059,0.0835 -0.07678,0.13934 -0.206706,0.13934 0,0 -2.165358,0 -2.165358,0 -0.129921,0 -0.216656,-0.0559 -0.216836,-0.13934 0,0 -0.0029,-1.33919 -0.0029,-1.33919 -1.67e-4,-0.0773 0.08267,-0.12873 0.207098,-0.12873 0,0 2.073753,0 2.073753,0 0.124425,0 0.211,0.0514 0.216456,0.12873 0,0 0,0 0,0 m 0.154564,2.19091 c 0,0 0.106389,1.50804 0.106389,1.50804 0.0066,0.0942 -0.08094,0.1573 -0.218991,0.1573 0,0 -2.300876,0 -2.300876,0 -0.138052,0 -0.230223,-0.0631 -0.230426,-0.1573 0,0 -0.0032,-1.50804 -0.0032,-1.50804 -1.87e-4,-0.0869 0.0876,-0.1446 0.21946,-0.1446 0,0 2.197719,0 2.197719,0 0.131863,0 0.223843,0.0577 0.229973,0.1446 0,0 0,0 0,0 m 0.174297,2.47063 c 0,0 0.120704,1.71096 0.120704,1.71096 0.0076,0.10719 -0.08555,0.17895 -0.232824,0.17895 0,0 -2.454488,0 -2.454488,0 -0.14727,0 -0.245604,-0.0718 -0.245835,-0.17895 0,0 -0.0037,-1.71096 -0.0037,-1.71096 -2.11e-4,-0.0983 0.09315,-0.16362 0.233393,-0.16362 0,0 2.337447,0 2.337447,0 0.140247,0 0.238351,0.0653 0.245288,0.16362 0,0 0,0 0,0 m 0.198065,2.80753 c 0,0 0.138117,1.95779 0.138117,1.95779 0.0087,0.12303 -0.09071,0.20541 -0.248517,0.20541 0,0 -2.630079,0 -2.630079,0 -0.157804,0 -0.263185,-0.0824 -0.26345,-0.20541 0,0 -0.0042,-1.95779 -0.0042,-1.95779 -2.41e-4,-0.11217 0.09944,-0.18664 0.249213,-0.18664 0,0 2.496151,0 2.496151,0 0.149769,0 0.254868,0.0745 0.262782,0.18664 0,0 0,0 0,0 m 0.227052,3.21842 c 0,0 0.372522,5.28045 0.372522,5.28045 0.01133,0.16061 -0.101335,0.26823 -0.281723,0.26823 0,0 -3.006467,0 -3.006467,0 -0.180388,0 -0.300878,-0.10762 -0.301224,-0.26823 0,0 -0.01137,-5.28045 -0.01137,-5.28045 -2.78e-4,-0.12916 0.106657,-0.21488 0.267335,-0.21488 0,0 2.677973,0 2.677973,0 0.160679,0 0.273845,0.0857 0.282958,0.21488 0,0 0,0 0,0 M 62.11202,88.31663 c 0,0 -0.03852,1.86568 -0.03852,1.86568 -8.3e-4,0.0402 -0.06146,0.0671 -0.151576,0.0671 0,0 -1.50191,0 -1.50191,0 -0.09011,0 -0.147797,-0.0269 -0.144215,-0.0671 0,0 0.166115,-1.86568 0.166115,-1.86568 0.0031,-0.0346 0.06067,-0.0576 0.143979,-0.0576 0,0 1.388466,0 1.388466,0 0.08331,0 0.138371,0.023 0.137656,0.0576 0,0 0,0 0,0 m -0.04693,2.27355 c 0,0 -0.01463,0.70868 -0.01463,0.70868 -9.02e-4,0.0437 -0.06414,0.0729 -0.158094,0.0729 0,0 -1.565879,0 -1.565879,0 -0.09395,0 -0.153986,-0.0292 -0.150093,-0.0729 0,0 0.0631,-0.70868 0.0631,-0.70868 0.0037,-0.0414 0.06683,-0.0689 0.157872,-0.0689 0,0 1.517407,0 1.517407,0 0.09104,0 0.151173,0.0275 0.150319,0.0689 0,0 0,0 0,0 m -0.02379,1.15223 c 0,0 -0.01594,0.77206 -0.01594,0.77206 -9.85e-4,0.0477 -0.06706,0.0796 -0.165197,0.0796 0,0 -1.635541,0 -1.635541,0 -0.09813,0 -0.160715,-0.0319 -0.156469,-0.0796 0,0 0.06874,-0.77206 0.06874,-0.77206 0.004,-0.045 0.06998,-0.0749 0.164944,-0.0749 0,0 1.582733,0 1.582733,0 0.09496,0 0.157655,0.0299 0.156726,0.0749 0,0 0,0 0,0 m -0.02593,1.25619 c 0,0 -0.01743,0.84435 -0.01743,0.84435 -0.0011,0.0522 -0.07027,0.0871 -0.172968,0.0871 0,0 -1.711689,0 -1.711689,0 -0.102701,0 -0.16806,-0.0349 -0.16341,-0.0871 0,0 0.07518,-0.84435 0.07518,-0.84435 0.0044,-0.0491 0.07344,-0.0818 0.172679,-0.0818 0,0 1.653935,0 1.653935,0 0.09924,0 0.164719,0.0327 0.163704,0.0818 0,0 0,0 0,0 m -0.02838,1.3749 c 0,0 -0.01914,0.92728 -0.01914,0.92728 -0.0012,0.0575 -0.07379,0.0958 -0.181506,0.0958 0,0 -1.795273,0 -1.795273,0 -0.107717,0 -0.176108,-0.0384 -0.170994,-0.0958 0,0 0.08256,-0.92728 0.08256,-0.92728 0.0048,-0.0539 0.07726,-0.0897 0.181174,-0.0897 0,0 1.731847,0 1.731847,0 0.10391,0 0.172445,0.0358 0.171332,0.0897 0,0 0,0 0,0 m -0.0312,1.51125 c 0,0 -0.02112,1.02307 -0.02112,1.02307 -0.0013,0.0635 -0.07768,0.10592 -0.19093,0.10592 0,0 -1.887441,0 -1.887441,0 -0.113247,0 -0.184965,-0.0425 -0.179314,-0.10592 0,0 0.09109,-1.02307 0.09109,-1.02307 0.0053,-0.0594 0.0815,-0.0988 0.190546,-0.0988 0,0 1.817461,0 1.817461,0 0.109047,0 0.180931,0.0395 0.179706,0.0988 0,0 0,0 0,0 m -0.03445,1.66895 c 0,0 -0.02342,1.13451 -0.02342,1.13451 -0.0015,0.0705 -0.08201,0.11768 -0.201388,0.11768 0,0 -1.989583,0 -1.989583,0 -0.119375,0 -0.194759,-0.0472 -0.188482,-0.11768 0,0 0.101015,-1.13451 0.101015,-1.13451 0.0059,-0.0657 0.08622,-0.1094 0.200939,-0.1094 0,0 1.91198,0 1.91198,0 0.114719,0 0.190297,0.0437 0.18894,0.1094 0,0 0,0 0,0 m -0.03825,1.8527 c 0,0 -0.02612,1.2652 -0.02612,1.2652 -0.0016,0.0788 -0.08685,0.1315 -0.213056,0.1315 0,0 -2.103415,0 -2.103415,0 -0.126205,0 -0.205648,-0.0527 -0.198633,-0.1315 0,0 0.112651,-1.2652 0.112651,-1.2652 0.0065,-0.0731 0.09152,-0.12175 0.212528,-0.12175 0,0 2.01687,0 2.01687,0 0.121012,0 0.200684,0.0486 0.199174,0.12175 0,0 0,0 0,0 m -0.0427,2.06855 c 0,0 -0.02931,1.41985 -0.02931,1.41985 -0.0018,0.0886 -0.0923,0.14792 -0.22616,0.14792 0,0 -2.231061,0 -2.231061,0 -0.133863,0 -0.217826,-0.0593 -0.209936,-0.14792 0,0 0.126421,-1.41985 0.126421,-1.41985 0.0073,-0.0819 0.09749,-0.13632 0.225531,-0.13632 0,0 2.133937,0 2.133937,0 0.128036,0 0.21227,0.0544 0.210579,0.13632 0,0 0,0 0,0 m -0.04799,2.32447 c 0,0 -0.03313,1.6047 -0.03313,1.6047 -0.0021,0.10039 -0.09847,0.1676 -0.24098,0.1676 0,0 -2.3752,0 -2.3752,0 -0.142512,0 -0.231537,-0.0672 -0.222598,-0.1676 0,0 0.142879,-1.6047 0.142879,-1.6047 0.0082,-0.0923 0.1043,-0.15367 0.240226,-0.15367 0,0 2.26543,0 2.26543,0 0.135926,0 0.225277,0.0613 0.223371,0.15367 0,0 0,0 0,0 m -0.05431,2.631 c 0,0 -0.03774,1.82815 -0.03774,1.82815 -0.0024,0.1147 -0.105523,0.19149 -0.257879,0.19149 0,0 -2.539251,0 -2.539251,0 -0.152355,0 -0.247087,-0.0768 -0.236875,-0.19149 0,0 0.162774,-1.82815 0.162774,-1.82815 0.0093,-0.10491 0.11211,-0.17456 0.256962,-0.17456 0,0 2.414193,0 2.414193,0 0.144852,0 0.239982,0.0696 0.237816,0.17456 0,0 0,0 0,0 m -0.06198,3.00247 c 0,0 -0.143403,6.94645 -0.143403,6.94645 -0.0033,0.16061 -0.125796,0.26823 -0.306184,0.26823 0,0 -3.006467,0 -3.006467,0 -0.180388,0 -0.291064,-0.10762 -0.276763,-0.26823 0,0 0.618497,-6.94645 0.618497,-6.94645 0.0107,-0.12023 0.121163,-0.20002 0.276195,-0.20002 0,0 2.583868,0 2.583868,0 0.155032,0 0.256739,0.0798 0.254257,0.20002 0,0 0,0 0,0 M 59.885219,88.31663 c 0,0 -0.06618,0.59175 -0.06618,0.59175 -0.0041,0.0364 -0.06395,0.0608 -0.149689,0.0608 0,0 -1.42894,0 -1.42894,0 -0.08574,0 -0.138507,-0.0243 -0.131944,-0.0608 0,0 0.106651,-0.59175 0.106651,-0.59175 0.0062,-0.0346 0.06593,-0.0576 0.149235,-0.0576 0,0 1.388466,0 1.388466,0 0.08331,0 0.136271,0.023 0.1324,0.0576 0,0 0,0 0,0 M 59.77777,89.2774 c 0,0 -0.07156,0.63985 -0.07156,0.63985 -0.0044,0.0394 -0.06682,0.0658 -0.156027,0.0658 0,0 -1.486725,0 -1.486725,0 -0.0892,0 -0.143925,-0.0263 -0.136821,-0.0658 0,0 0.115319,-0.63985 0.115319,-0.63985 0.0067,-0.0374 0.06894,-0.0623 0.155517,-0.0623 0,0 1.442961,0 1.442961,0 0.08658,0 0.141515,0.0249 0.137334,0.0623 0,0 0,0 0,0 m -0.116251,1.03947 c 0,0 -0.07762,0.69405 -0.07762,0.69405 -0.0048,0.0428 -0.06996,0.0714 -0.162925,0.0714 0,0 -1.549382,0 -1.549382,0 -0.09296,0 -0.149781,-0.0286 -0.142067,-0.0714 0,0 0.125088,-0.69405 0.125088,-0.69405 0.0073,-0.0405 0.07223,-0.0674 0.162348,-0.0674 0,0 1.501909,0 1.501909,0 0.09011,0 0.147178,0.0269 0.142647,0.0674 0,0 0,0 0,0 m -0.126179,1.12826 c 0,0 -0.08449,0.75544 -0.08449,0.75544 -0.0052,0.0466 -0.07341,0.0778 -0.170459,0.0778 0,0 -1.61755,0 -1.61755,0 -0.09705,0 -0.156135,-0.0312 -0.147728,-0.0778 0,0 0.136152,-0.75544 0.136152,-0.75544 0.0079,-0.0441 0.07585,-0.0733 0.169804,-0.0733 0,0 1.565879,0 1.565879,0 0.09395,0 0.153313,0.0293 0.148387,0.0733 0,0 0,0 0,0 m -0.137437,1.22892 c 0,0 -0.953874,8.52924 -0.953874,8.52924 -0.0091,0.0811 -0.100493,0.13534 -0.228529,0.13534 0,0 -2.133937,0 -2.133937,0 -0.128036,0 -0.203616,-0.0542 -0.189002,-0.13534 0,0 1.537221,-8.52924 1.537221,-8.52924 0.0087,-0.0481 0.07984,-0.08 0.177974,-0.08 0,0 1.635541,0 1.635541,0 0.09813,0 0.159981,0.0319 0.154606,0.08 0,0 0,0 0,0 m -1.046363,9.35625 c 0,0 -0.16361,1.46295 -0.16361,1.46295 -0.01022,0.0914 -0.107672,0.1525 -0.243597,0.1525 0,0 -2.265431,0 -2.265431,0 -0.135926,0 -0.215524,-0.0612 -0.199059,-0.1525 0,0 0.263667,-1.46295 0.263667,-1.46295 0.0152,-0.0844 0.111913,-0.14037 0.241835,-0.14037 0,0 2.165358,0 2.165358,0 0.129921,0 0.21027,0.056 0.200837,0.14037 0,0 0,0 0,0 m -0.267944,2.39587 c 0,0 -0.185262,1.65656 -0.185262,1.65656 -0.0116,0.10371 -0.11593,0.17313 -0.260782,0.17313 0,0 -2.414194,0 -2.414194,0 -0.144851,0 -0.228907,-0.0694 -0.210215,-0.17313 0,0 0.29856,-1.65656 0.29856,-1.65656 0.01717,-0.0953 0.120606,-0.15852 0.258659,-0.15852 0,0 2.300875,0 2.300875,0 0.138053,0 0.223013,0.0633 0.212359,0.15852 0,0 0,0 0,0 m -0.692307,5.74702 c 0,0 -0.271062,2.40076 -0.271062,2.40076 -0.0052,0.046 -0.07591,0.0865 -0.131494,0.0865 0,0 -0.833766,0 -0.833766,0 -0.05558,0 -0.09904,-0.0405 -0.09286,-0.0865 0,0 0.32325,-2.40076 0.32325,-2.40076 0.0056,-0.0415 0.05801,-0.0907 0.111186,-0.0907 0,0 0.789688,0 0.789688,0 0.05265,0 0.109735,0.0492 0.105053,0.0907 0,0 0,0 0,0 m -1.618995,-3.09756 c 0,0 -0.330143,2.08288 -0.330143,2.08288 -0.0063,0.0397 -0.07335,0.0747 -0.125023,0.0747 0,0 -0.775167,0 -0.775167,0 -0.05168,0 -0.09084,-0.035 -0.08368,-0.0747 0,0 0.37542,-2.08288 0.37542,-2.08288 0.0065,-0.0361 0.05698,-0.079 0.106596,-0.079 0,0 0.736925,0 0.736925,0 0.04913,0 0.100794,0.0429 0.09507,0.079 0,0 0,0 0,0 m -0.490973,3.09756 c 0,0 -0.380528,2.40076 -0.380528,2.40076 -0.0073,0.046 -0.07985,0.0865 -0.135436,0.0865 0,0 -0.833766,0 -0.833766,0 -0.05558,0 -0.0972,-0.0405 -0.08891,-0.0865 0,0 0.432714,-2.40076 0.432714,-2.40076 0.0075,-0.0415 0.06215,-0.0907 0.115322,-0.0907 0,0 0.789688,0 0.789688,0 0.05264,0 0.107489,0.0492 0.100918,0.0907 0,0 0,0 0,0 m -0.566847,3.57635 c 0,0 -0.443395,2.79739 -0.443395,2.79739 -0.0085,0.0538 -0.08759,0.10118 -0.147722,0.10118 0,0 -0.901949,0 -0.901949,0 -0.06013,0 -0.104499,-0.0474 -0.09481,-0.10118 0,0 0.504204,-2.79739 0.504204,-2.79739 0.0087,-0.0481 0.0683,-0.10525 0.125577,-0.10525 0,0 0.850589,0 0.850589,0 0.05671,0 0.11513,0.0571 0.107504,0.10525 0,0 0,0 0,0"
       id="path975"
       inkscape:connector-curvature="0" />
    <path
       inkscape:connector-curvature="0"
       id="rect1501"
       d="m 48.865234,119.8752 c -0.0187,0.0638 -0.04102,0.12726 -0.04102,0.19726 v 2.11524 c 0,0.39339 0.317542,0.70898 0.710937,0.70898 h 30.175782 c 0.393395,0 0.710937,-0.31559 0.710937,-0.70898 v -2.11524 c 0,-0.0173 -0.0086,-0.0319 -0.0098,-0.0488 -0.05137,0.31578 -0.319203,0.55078 -0.699218,0.55078 H 49.605469 c -0.436039,0 -0.72975,-0.31292 -0.740235,-0.69922 z"
       style="opacity:1;fill:#4d4d4d;fill-opacity:1;stroke:none;stroke-width:3.00683999;stroke-miterlimit:4;stroke-dasharray:none;stroke-opacity:1" />
    <path
       inkscape:connector-curvature="0"
       id="path1505"
       d="m 70.28117,87.75224 c -0.02824,-0.0879 -0.241814,-0.16427 -0.457849,-0.16427 0,0 -12.692075,0 -12.692075,0 -0.216035,0 -0.424055,0.0764 -0.445906,0.16427 0,0 -7.816414,31.43879 -7.816414,31.43879 -0.118859,0.47807 0.223847,0.90321 0.736313,0.90321 0,0 30.107343,0 30.107343,0 0.512466,0 0.824263,-0.42514 0.670648,-0.90321 0,0 -10.10206,-31.43879 -10.10206,-31.43879 m -1.488746,0.56439 c 0,0 0.149672,0.59175 0.149672,0.59175 0.0092,0.0364 -0.04179,0.0608 -0.127527,0.0608 0,0 -1.42894,0 -1.42894,0 -0.08574,0 -0.147386,-0.0243 -0.154106,-0.0608 0,0 -0.1092,-0.59175 -0.1092,-0.59175 -0.0064,-0.0346 0.0449,-0.0576 0.12821,-0.0576 0,0 1.388465,0 1.388465,0 0.08331,0 0.14467,0.023 0.153426,0.0576 0,0 0,0 0,0 m 0.243008,0.96077 c 0,0 0.161836,0.63985 0.161836,0.63985 0.01,0.0394 -0.04283,0.0658 -0.132039,0.0658 0,0 -1.486725,0 -1.486725,0 -0.0892,0 -0.153534,-0.0263 -0.160808,-0.0658 0,0 -0.118075,-0.63985 -0.118075,-0.63985 -0.0069,-0.0374 0.04623,-0.0623 0.132807,-0.0623 0,0 1.442961,0 1.442961,0 0.08658,0 0.150586,0.0249 0.160043,0.0623 0,0 0,0 0,0 m 0.262915,1.03947 c 0,0 0.175545,0.69405 0.175545,0.69405 0.01083,0.0428 -0.04391,0.0714 -0.136875,0.0714 0,0 -1.549381,0 -1.549381,0 -0.09296,0 -0.160218,-0.0286 -0.168117,-0.0714 0,0 -0.128077,-0.69405 -0.128077,-0.69405 -0.0075,-0.0405 0.04763,-0.0674 0.137743,-0.0674 0,0 1.50191,0 1.50191,0 0.09011,0 0.157005,0.0269 0.167252,0.0674 0,0 0,0 0,0 m 0.285371,1.12826 c 0,0 0.191073,0.75544 0.191073,0.75544 0.0118,0.0466 -0.04502,0.0778 -0.14207,0.0778 0,0 -1.61755,0 -1.61755,0 -0.09705,0 -0.16751,-0.0312 -0.176118,-0.0778 0,0 -0.139406,-0.75544 -0.139406,-0.75544 -0.0081,-0.0441 0.0491,-0.0733 0.143056,-0.0733 0,0 1.565879,0 1.565879,0 0.09395,0 0.163995,0.0293 0.175136,0.0733 0,0 0,0 0,0 m 0.310832,1.22892 c 0,0 0.208757,0.82535 0.208757,0.82535 0.01291,0.051 -0.04614,0.0851 -0.147663,0.0851 0,0 -1.691995,0 -1.691995,0 -0.10152,0 -0.175495,-0.0341 -0.184912,-0.0851 0,0 -0.152308,-0.82535 -0.152308,-0.82535 -0.0089,-0.0481 0.05066,-0.08 0.148789,-0.08 0,0 1.63554,0 1.63554,0 0.09813,0 0.171636,0.0319 0.183792,0.08 0,0 0,0 0,0 m 0.33986,1.34369 c 0,0 0.229014,0.90544 0.229014,0.90544 0.01418,0.0561 -0.04728,0.0935 -0.153701,0.0935 0,0 -1.773621,0 -1.773621,0 -0.106417,0 -0.18428,-0.0375 -0.194625,-0.0935 0,0 -0.167088,-0.90544 -0.167088,-0.90544 -0.0097,-0.0526 0.05229,-0.0876 0.154995,-0.0876 0,0 1.711688,0 1.711688,0 0.102702,0 0.180021,0.035 0.193338,0.0876 0,0 0,0 0,0 m 0.373153,1.47531 c 0,0 0.252371,0.99779 0.252371,0.99779 0.01565,0.0619 -0.04842,0.10326 -0.160236,0.10326 0,0 -1.863523,0 -1.863523,0 -0.111811,0 -0.193989,-0.0414 -0.205407,-0.10326 0,0 -0.184128,-0.99779 -0.184128,-0.99779 -0.01069,-0.0579 0.05402,-0.0964 0.161733,-0.0964 0,0 1.795273,0 1.795273,0 0.107717,0 0.189266,0.0385 0.203917,0.0964 0,0 0,0 0,0 m 0.411592,1.62729 c 0,0 0.279491,1.10501 0.279491,1.10501 0.01736,0.0686 -0.04955,0.11456 -0.167328,0.11456 0,0 -1.963025,0 -1.963025,0 -0.117782,0 -0.204776,-0.0459 -0.217443,-0.11456 0,0 -0.203915,-1.10501 -0.203915,-1.10501 -0.01182,-0.064 0.05583,-0.1066 0.169072,-0.1066 0,0 1.887441,0 1.887441,0 0.113247,0 0.199509,0.0426 0.215707,0.1066 0,0 0,0 0,0 m 0.456291,1.80402 c 0,0 0.31123,1.23049 0.31123,1.23049 0.01937,0.0766 -0.05062,0.12782 -0.175045,0.12782 0,0 -2.073753,0 -2.073753,0 -0.124425,0 -0.216831,-0.0512 -0.230963,-0.12782 0,0 -0.227072,-1.23049 -0.227072,-1.23049 -0.01313,-0.0712 0.05772,-0.11847 0.177096,-0.11847 0,0 1.989583,0 1.989583,0 0.119375,0 0.21092,0.0473 0.228924,0.11847 0,0 0,0 0,0 m 0.50869,2.01118 c 0,0 0.3487,1.37864 0.3487,1.37864 0.02175,0.086 -0.0516,0.14353 -0.183468,0.14353 0,0 -2.197719,0 -2.197719,0 -0.131863,0 -0.23039,-0.0575 -0.246258,-0.14353 0,0 -0.25441,-1.37864 -0.25441,-1.37864 -0.01469,-0.0796 0.0597,-0.13244 0.185901,-0.13244 0,0 2.103414,0 2.103414,0 0.126205,0 0.223712,0.0529 0.24384,0.13244 0,0 0,0 0,0 m 0.570666,2.25621 c 0,0 0.393369,1.55524 0.393369,1.55524 0.02459,0.0972 -0.05244,0.16233 -0.192689,0.16233 0,0 -2.337447,0 -2.337447,0 -0.140247,0 -0.245755,-0.0651 -0.263699,-0.16233 0,0 -0.287,-1.55524 -0.287,-1.55524 -0.01653,-0.0896 0.06174,-0.14903 0.195603,-0.14903 0,0 2.231061,0 2.231061,0 0.133863,0 0.23815,0.0595 0.260802,0.14903 0,0 0,0 0,0 m 0.644701,2.54892 c 0,0 0.447206,1.7681 0.447206,1.7681 0.02804,0.11085 -0.05304,0.18506 -0.202806,0.18506 0,0 -2.496151,0 -2.496151,0 -0.149769,0 -0.26331,-0.0742 -0.283766,-0.18506 0,0 -0.32628,-1.7681 -0.32628,-1.7681 -0.01874,-0.10154 0.06383,-0.16895 0.206342,-0.16895 0,0 2.3752,0 2.3752,0 0.142512,0 0.254573,0.0674 0.280255,0.16895 0,0 0,0 0,0 m 0.734143,2.90255 c 0,0 0.512906,2.02785 0.512906,2.02785 0.03226,0.12753 -0.05326,0.21294 -0.213938,0.21294 0,0 -2.677974,0 -2.677974,0 -0.160678,0 -0.283558,-0.0854 -0.307092,-0.21294 0,0 -0.374214,-2.02785 -0.374214,-2.02785 -0.02142,-0.1161 0.06593,-0.19316 0.218281,-0.19316 0,0 2.539251,0 2.539251,0 0.152355,0 0.273417,0.0771 0.30278,0.19316 0,0 0,0 0,0 m 0.843588,3.33525 c 0,0 1.113116,4.40087 1.113116,4.40087 0.04062,0.16061 -0.05241,0.26823 -0.232802,0.26823 0,0 -3.006466,0 -3.006466,0 -0.180388,0 -0.320507,-0.10762 -0.350146,-0.26823 0,0 -0.812125,-4.40087 -0.812125,-4.40087 -0.02473,-0.13402 0.06796,-0.22296 0.231622,-0.22296 0,0 2.727645,0 2.727645,0 0.163659,0 0.295258,0.0889 0.329156,0.22296 0,0 0,0 0,0 M 66.565623,88.31663 c 0,0 0.175682,1.08621 0.175682,1.08621 0.0061,0.0379 -0.04807,0.0632 -0.135506,0.0632 0,0 -1.45726,0 -1.45726,0 -0.08744,0 -0.148089,-0.0253 -0.151625,-0.0632 0,0 -0.101392,-1.08621 -0.101392,-1.08621 -0.0032,-0.0346 0.05016,-0.0576 0.133466,-0.0576 0,0 1.388466,0 1.388466,0 0.08331,0 0.14257,0.023 0.148169,0.0576 0,0 0,0 0,0 m 0.237769,1.47008 c 0,0 0.107737,0.66612 0.107737,0.66612 0.0066,0.0411 -0.04962,0.0685 -0.140661,0.0685 0,0 -1.517407,0 -1.517407,0 -0.09104,0 -0.154302,-0.0274 -0.158135,-0.0685 0,0 -0.06218,-0.66612 -0.06218,-0.66612 -0.0036,-0.0389 0.05283,-0.0648 0.141138,-0.0648 0,0 1.471845,0 1.471845,0 0.08831,0 0.151369,0.0259 0.157662,0.0648 0,0 0,0 0,0 m 0.175082,1.0825 c 0,0 0.117062,0.72376 0.117062,0.72376 0.0072,0.0447 -0.05126,0.0745 -0.146221,0.0745 0,0 -1.582732,0 -1.582732,0 -0.09496,0 -0.16106,-0.0299 -0.165229,-0.0745 0,0 -0.06756,-0.72376 -0.06756,-0.72376 -0.0039,-0.0422 0.05477,-0.0703 0.146761,-0.0703 0,0 1.533227,0 1.533227,0 0.09199,0 0.157864,0.0281 0.164693,0.0703 0,0 0,0 0,0 m 0.190363,1.17697 c 0,0 0.127651,0.78924 0.127651,0.78924 0.0079,0.0488 -0.053,0.0814 -0.152234,0.0814 0,0 -1.653935,0 -1.653935,0 -0.09924,0 -0.168437,-0.0326 -0.172989,-0.0814 0,0 -0.07367,-0.78924 -0.07367,-0.78924 -0.0043,-0.046 0.05685,-0.0766 0.152848,-0.0766 0,0 1.599952,0 1.599952,0 0.096,0 0.16494,0.0306 0.172378,0.0766 0,0 0,0 0,0 m 0.207736,1.28439 c 0,0 0.139744,0.864 0.139744,0.864 0.0086,0.0535 -0.05485,0.0892 -0.158758,0.0892 0,0 -1.731847,0 -1.731847,0 -0.103911,0 -0.176521,-0.0357 -0.181511,-0.0892 0,0 -0.08065,-0.864 -0.08065,-0.864 -0.0047,-0.0503 0.0591,-0.0837 0.159462,-0.0837 0,0 1.672749,0 1.672749,0 0.100364,0 0.17268,0.0334 0.180812,0.0837 0,0 0,0 0,0 m 0.227599,1.40719 c 0,0 0.153641,0.94993 0.153641,0.94993 0.0095,0.0589 -0.05681,0.0982 -0.16586,0.0982 0,0 -1.817461,0 -1.817461,0 -0.109048,0 -0.18542,-0.0393 -0.190915,-0.0982 0,0 -0.08867,-0.94993 -0.08867,-0.94993 -0.0052,-0.0552 0.06152,-0.0919 0.166671,-0.0919 0,0 1.752485,0 1.752485,0 0.10515,0 0.181183,0.0367 0.19011,0.0919 0,0 0,0 0,0 m 0.250455,1.54851 c 0,0 0.16972,1.04935 0.16972,1.04935 0.01053,0.0651 -0.0589,0.10868 -0.173619,0.10868 0,0 -1.911981,0 -1.911981,0 -0.114719,0 -0.195264,-0.0436 -0.201343,-0.10868 0,0 -0.09795,-1.04935 -0.09795,-1.04935 -0.0057,-0.0609 0.06415,-0.10132 0.174562,-0.10132 0,0 1.840204,0 1.840204,0 0.110412,0 0.190563,0.0404 0.200409,0.10132 0,0 0,0 0,0 m 0.276935,1.71224 c 0,0 0.188462,1.16522 0.188462,1.16522 0.01172,0.0725 -0.06112,0.12092 -0.18213,0.12092 0,0 -2.01687,0 -2.01687,0 -0.121012,0 -0.206211,-0.0485 -0.212974,-0.12092 0,0 -0.108768,-1.16522 -0.108768,-1.16522 -0.0063,-0.0675 0.067,-0.1123 0.183233,-0.1123 0,0 1.937167,0 1.937167,0 0.11623,0 0.200968,0.0448 0.21188,0.1123 0,0 0,0 0,0 m 0.307851,1.90337 c 0,0 0.210489,1.30141 0.210489,1.30141 0.01311,0.0811 -0.06347,0.13534 -0.191505,0.13534 0,0 -2.133936,0 -2.133936,0 -0.128037,0 -0.218458,-0.0542 -0.226027,-0.13534 0,0 -0.121481,-1.30141 -0.121481,-1.30141 -0.007,-0.0752 0.07011,-0.12516 0.192808,-0.12516 0,0 2.044916,0 2.044916,0 0.122695,0 0.212573,0.05 0.224736,0.12516 0,0 0,0 0,0 m 0.344248,2.12842 c 0,0 0.236617,1.46295 0.236617,1.46295 0.01478,0.0914 -0.06595,0.1525 -0.201879,0.1525 0,0 -2.26543,0 -2.26543,0 -0.135926,0 -0.23225,-0.0612 -0.240778,-0.1525 0,0 -0.13656,-1.46295 -0.13656,-1.46295 -0.0079,-0.0844 0.07351,-0.14037 0.203433,-0.14037 0,0 2.165358,0 2.165358,0 0.129922,0 0.225597,0.056 0.239239,0.14037 0,0 0,0 0,0 m 0.387507,2.39587 c 0,0 0.26793,1.65656 0.26793,1.65656 0.01677,0.10371 -0.06857,0.17313 -0.213417,0.17313 0,0 -2.414193,0 -2.414193,0 -0.144852,0 -0.2479,-0.0694 -0.257581,-0.17313 0,0 -0.154632,-1.65656 -0.154632,-1.65656 -0.0089,-0.0953 0.07724,-0.15852 0.21529,-0.15852 0,0 2.300876,0 2.300876,0 0.138052,0 0.240319,0.0633 0.255727,0.15852 0,0 0,0 0,0 m 0.439466,2.71713 c 0,0 0.305898,1.8913 0.305898,1.8913 0.01921,0.11875 -0.07129,0.19827 -0.226319,0.19827 0,0 -2.583868,0 -2.583868,0 -0.155032,0 -0.265809,-0.0795 -0.276894,-0.19827 0,0 -0.176544,-1.8913 -0.176544,-1.8913 -0.01012,-0.10845 0.08133,-0.18045 0.228604,-0.18045 0,0 2.454488,0 2.454488,0 0.14727,0 0.257094,0.072 0.274635,0.18045 0,0 0,0 0,0 m 0.502625,3.10762 c 0,0 0.352549,2.17974 0.352549,2.17974 0.02221,0.13732 -0.07408,0.2293 -0.240832,0.2293 0,0 -2.779194,0 -2.779194,0 -0.166751,0 -0.286505,-0.092 -0.299323,-0.2293 0,0 -0.203469,-2.17974 -0.203469,-2.17974 -0.01163,-0.12457 0.08586,-0.20725 0.243662,-0.20725 0,0 2.630078,0 2.630078,0 0.157805,0 0.276381,0.0827 0.296529,0.20725 0,0 0,0 0,0 m 0.580456,3.58884 c 0,0 0.410749,2.53958 0.410749,2.53958 0.02598,0.16061 -0.07687,0.26823 -0.257262,0.26823 0,0 -3.006467,0 -3.006467,0 -0.180388,0 -0.310693,-0.10762 -0.325685,-0.26823 0,0 -0.237058,-2.53958 -0.237058,-2.53958 -0.0135,-0.14458 0.09086,-0.2405 0.260823,-0.2405 0,0 2.832728,0 2.832728,0 0.169964,0 0.298788,0.0959 0.322172,0.2405 0,0 0,0 0,0 M 64.338826,88.31663 c 0,0 0.09459,1.34085 0.09459,1.34085 0.0027,0.0386 -0.05433,0.0645 -0.142638,0.0645 0,0 -1.471845,0 -1.471845,0 -0.08831,0 -0.14724,-0.0258 -0.147323,-0.0645 0,0 -0.0029,-1.34085 -0.0029,-1.34085 -7.5e-5,-0.0346 0.05541,-0.0576 0.138722,-0.0576 0,0 1.388466,0 1.388466,0 0.08331,0 0.14047,0.023 0.142912,0.0576 0,0 0,0 0,0 m 0.122222,1.73247 c 0,0 0.04796,0.67987 0.04796,0.67987 0.003,0.0419 -0.05639,0.0699 -0.148389,0.0699 0,0 -1.533227,0 -1.533227,0 -0.09199,0 -0.153383,-0.028 -0.153474,-0.0699 0,0 -0.0015,-0.67987 -0.0015,-0.67987 -8.5e-5,-0.0397 0.05933,-0.0661 0.14853,-0.0661 0,0 1.486726,0 1.486726,0 0.0892,0 0.150535,0.0264 0.153335,0.0661 0,0 0,0 0,0 m 0.07796,1.10503 c 0,0 0.05216,0.73934 0.05216,0.73934 0.0032,0.0456 -0.05863,0.0762 -0.154623,0.0762 0,0 -1.599952,0 -1.599952,0 -0.096,0 -0.160061,-0.0305 -0.160159,-0.0762 0,0 -0.0016,-0.73934 -0.0016,-0.73934 -9.3e-5,-0.0431 0.06182,-0.0718 0.154784,-0.0718 0,0 1.549381,0 1.549381,0 0.09296,0 0.156961,0.0287 0.160003,0.0718 0,0 0,0 0,0 m 0.08483,1.20252 c 0,0 0.05693,0.80699 0.05693,0.80699 0.0035,0.0499 -0.06104,0.0832 -0.161404,0.0832 0,0 -1.672749,0 -1.672749,0 -0.100364,0 -0.167346,-0.0333 -0.167454,-0.0832 0,0 -0.0017,-0.80699 -0.0017,-0.80699 -1.01e-4,-0.047 0.06453,-0.0783 0.161587,-0.0783 0,0 1.61755,0 1.61755,0 0.09705,0 0.16396,0.0312 0.167276,0.0783 0,0 0,0 0,0 m 0.09267,1.31354 c 0,0 0.06239,0.88436 0.06239,0.88436 0.0039,0.0547 -0.06365,0.0913 -0.168805,0.0913 0,0 -1.752485,0 -1.752485,0 -0.105149,0 -0.175327,-0.0366 -0.175445,-0.0913 0,0 -0.0019,-0.88436 -0.0019,-0.88436 -1.1e-4,-0.0514 0.0675,-0.0856 0.169015,-0.0856 0,0 1.691995,0 1.691995,0 0.10152,0 0.171612,0.0342 0.175241,0.0856 0,0 0,0 0,0 m 0.101635,1.44065 c 0,0 0.06867,0.97342 0.06867,0.97342 0.0043,0.0603 -0.06651,0.10069 -0.176917,0.10069 0,0 -1.840204,0 -1.840204,0 -0.110412,0 -0.184107,-0.0404 -0.184237,-0.10069 0,0 -0.0021,-0.97342 -0.0021,-0.97342 -1.21e-4,-0.0565 0.07074,-0.0941 0.17716,-0.0941 0,0 1.773621,0 1.773621,0 0.106417,0 0.180013,0.0376 0.184002,0.0941 0,0 0,0 0,0 m 0.11197,1.58717 c 0,0 0.07595,1.07663 0.07595,1.07663 0.0047,0.0668 -0.06962,0.11157 -0.185847,0.11157 0,0 -1.937166,0 -1.937166,0 -0.11623,0 -0.193813,-0.0447 -0.193957,-0.11157 0,0 -0.0023,-1.07663 -0.0023,-1.07663 -1.35e-4,-0.0624 0.07432,-0.10391 0.186128,-0.10391 0,0 1.863523,0 1.863523,0 0.111812,0 0.189279,0.0415 0.193683,0.10391 0,0 0,0 0,0 m 0.123969,1.75722 c 0,0 0.08446,1.19719 0.08446,1.19719 0.0053,0.0745 -0.07303,0.1243 -0.195722,0.1243 0,0 -2.044916,0 -2.044916,0 -0.122695,0 -0.204599,-0.0498 -0.20476,-0.1243 0,0 -0.0026,-1.19719 -0.0026,-1.19719 -1.5e-4,-0.0693 0.07827,-0.11532 0.196054,-0.11532 0,0 1.963025,0 1.963025,0 0.117782,0 0.19955,0.046 0.204439,0.11532 0,0 0,0 0,0 m 0.138002,1.95617 c 0,0 0.09448,1.33919 0.09448,1.33919 0.0059,0.0835 -0.07678,0.13934 -0.206706,0.13934 0,0 -2.165358,0 -2.165358,0 -0.129921,0 -0.216656,-0.0559 -0.216836,-0.13934 0,0 -0.0029,-1.33919 -0.0029,-1.33919 -1.67e-4,-0.0773 0.08267,-0.12873 0.207098,-0.12873 0,0 2.073753,0 2.073753,0 0.124425,0 0.211,0.0514 0.216456,0.12873 0,0 0,0 0,0 m 0.154564,2.19091 c 0,0 0.106389,1.50804 0.106389,1.50804 0.0066,0.0942 -0.08094,0.1573 -0.218991,0.1573 0,0 -2.300876,0 -2.300876,0 -0.138052,0 -0.230223,-0.0631 -0.230426,-0.1573 0,0 -0.0032,-1.50804 -0.0032,-1.50804 -1.87e-4,-0.0869 0.0876,-0.1446 0.21946,-0.1446 0,0 2.197719,0 2.197719,0 0.131863,0 0.223843,0.0577 0.229973,0.1446 0,0 0,0 0,0 m 0.174297,2.47063 c 0,0 0.120704,1.71096 0.120704,1.71096 0.0076,0.10719 -0.08555,0.17895 -0.232824,0.17895 0,0 -2.454488,0 -2.454488,0 -0.14727,0 -0.245604,-0.0718 -0.245835,-0.17895 0,0 -0.0037,-1.71096 -0.0037,-1.71096 -2.11e-4,-0.0983 0.09315,-0.16362 0.233393,-0.16362 0,0 2.337447,0 2.337447,0 0.140247,0 0.238351,0.0653 0.245288,0.16362 0,0 0,0 0,0 m 0.198065,2.80753 c 0,0 0.138117,1.95779 0.138117,1.95779 0.0087,0.12303 -0.09071,0.20541 -0.248517,0.20541 0,0 -2.630079,0 -2.630079,0 -0.157804,0 -0.263185,-0.0824 -0.26345,-0.20541 0,0 -0.0042,-1.95779 -0.0042,-1.95779 -2.41e-4,-0.11217 0.09944,-0.18664 0.249213,-0.18664 0,0 2.496151,0 2.496151,0 0.149769,0 0.254868,0.0745 0.262782,0.18664 0,0 0,0 0,0 m 0.227052,3.21842 c 0,0 0.372522,5.28045 0.372522,5.28045 0.01133,0.16061 -0.101335,0.26823 -0.281723,0.26823 0,0 -3.006467,0 -3.006467,0 -0.180388,0 -0.300878,-0.10762 -0.301224,-0.26823 0,0 -0.01137,-5.28045 -0.01137,-5.28045 -2.78e-4,-0.12916 0.106657,-0.21488 0.267335,-0.21488 0,0 2.677973,0 2.677973,0 0.160679,0 0.273845,0.0857 0.282958,0.21488 0,0 0,0 0,0 M 62.11202,88.31663 c 0,0 -0.03852,1.86568 -0.03852,1.86568 -8.3e-4,0.0402 -0.06146,0.0671 -0.151576,0.0671 0,0 -1.50191,0 -1.50191,0 -0.09011,0 -0.147797,-0.0269 -0.144215,-0.0671 0,0 0.166115,-1.86568 0.166115,-1.86568 0.0031,-0.0346 0.06067,-0.0576 0.143979,-0.0576 0,0 1.388466,0 1.388466,0 0.08331,0 0.138371,0.023 0.137656,0.0576 0,0 0,0 0,0 m -0.04693,2.27355 c 0,0 -0.01463,0.70868 -0.01463,0.70868 -9.02e-4,0.0437 -0.06414,0.0729 -0.158094,0.0729 0,0 -1.565879,0 -1.565879,0 -0.09395,0 -0.153986,-0.0292 -0.150093,-0.0729 0,0 0.0631,-0.70868 0.0631,-0.70868 0.0037,-0.0414 0.06683,-0.0689 0.157872,-0.0689 0,0 1.517407,0 1.517407,0 0.09104,0 0.151173,0.0275 0.150319,0.0689 0,0 0,0 0,0 m -0.02379,1.15223 c 0,0 -0.01594,0.77206 -0.01594,0.77206 -9.85e-4,0.0477 -0.06706,0.0796 -0.165197,0.0796 0,0 -1.635541,0 -1.635541,0 -0.09813,0 -0.160715,-0.0319 -0.156469,-0.0796 0,0 0.06874,-0.77206 0.06874,-0.77206 0.004,-0.045 0.06998,-0.0749 0.164944,-0.0749 0,0 1.582733,0 1.582733,0 0.09496,0 0.157655,0.0299 0.156726,0.0749 0,0 0,0 0,0 m -0.02593,1.25619 c 0,0 -0.01743,0.84435 -0.01743,0.84435 -0.0011,0.0522 -0.07027,0.0871 -0.172968,0.0871 0,0 -1.711689,0 -1.711689,0 -0.102701,0 -0.16806,-0.0349 -0.16341,-0.0871 0,0 0.07518,-0.84435 0.07518,-0.84435 0.0044,-0.0491 0.07344,-0.0818 0.172679,-0.0818 0,0 1.653935,0 1.653935,0 0.09924,0 0.164719,0.0327 0.163704,0.0818 0,0 0,0 0,0 m -0.02838,1.3749 c 0,0 -0.01914,0.92728 -0.01914,0.92728 -0.0012,0.0575 -0.07379,0.0958 -0.181506,0.0958 0,0 -1.795273,0 -1.795273,0 -0.107717,0 -0.176108,-0.0384 -0.170994,-0.0958 0,0 0.08256,-0.92728 0.08256,-0.92728 0.0048,-0.0539 0.07726,-0.0897 0.181174,-0.0897 0,0 1.731847,0 1.731847,0 0.10391,0 0.172445,0.0358 0.171332,0.0897 0,0 0,0 0,0 m -0.0312,1.51125 c 0,0 -0.02112,1.02307 -0.02112,1.02307 -0.0013,0.0635 -0.07768,0.10592 -0.19093,0.10592 0,0 -1.887441,0 -1.887441,0 -0.113247,0 -0.184965,-0.0425 -0.179314,-0.10592 0,0 0.09109,-1.02307 0.09109,-1.02307 0.0053,-0.0594 0.0815,-0.0988 0.190546,-0.0988 0,0 1.817461,0 1.817461,0 0.109047,0 0.180931,0.0395 0.179706,0.0988 0,0 0,0 0,0 m -0.03445,1.66895 c 0,0 -0.02342,1.13451 -0.02342,1.13451 -0.0015,0.0705 -0.08201,0.11768 -0.201388,0.11768 0,0 -1.989583,0 -1.989583,0 -0.119375,0 -0.194759,-0.0472 -0.188482,-0.11768 0,0 0.101015,-1.13451 0.101015,-1.13451 0.0059,-0.0657 0.08622,-0.1094 0.200939,-0.1094 0,0 1.91198,0 1.91198,0 0.114719,0 0.190297,0.0437 0.18894,0.1094 0,0 0,0 0,0 m -0.03825,1.8527 c 0,0 -0.02612,1.2652 -0.02612,1.2652 -0.0016,0.0788 -0.08685,0.1315 -0.213056,0.1315 0,0 -2.103415,0 -2.103415,0 -0.126205,0 -0.205648,-0.0527 -0.198633,-0.1315 0,0 0.112651,-1.2652 0.112651,-1.2652 0.0065,-0.0731 0.09152,-0.12175 0.212528,-0.12175 0,0 2.01687,0 2.01687,0 0.121012,0 0.200684,0.0486 0.199174,0.12175 0,0 0,0 0,0 m -0.0427,2.06855 c 0,0 -0.02931,1.41985 -0.02931,1.41985 -0.0018,0.0886 -0.0923,0.14792 -0.22616,0.14792 0,0 -2.231061,0 -2.231061,0 -0.133863,0 -0.217826,-0.0593 -0.209936,-0.14792 0,0 0.126421,-1.41985 0.126421,-1.41985 0.0073,-0.0819 0.09749,-0.13632 0.225531,-0.13632 0,0 2.133937,0 2.133937,0 0.128036,0 0.21227,0.0544 0.210579,0.13632 0,0 0,0 0,0 m -0.04799,2.32447 c 0,0 -0.03313,1.6047 -0.03313,1.6047 -0.0021,0.10039 -0.09847,0.1676 -0.24098,0.1676 0,0 -2.3752,0 -2.3752,0 -0.142512,0 -0.231537,-0.0672 -0.222598,-0.1676 0,0 0.142879,-1.6047 0.142879,-1.6047 0.0082,-0.0923 0.1043,-0.15367 0.240226,-0.15367 0,0 2.26543,0 2.26543,0 0.135926,0 0.225277,0.0613 0.223371,0.15367 0,0 0,0 0,0 m -0.05431,2.631 c 0,0 -0.03774,1.82815 -0.03774,1.82815 -0.0024,0.1147 -0.105523,0.19149 -0.257879,0.19149 0,0 -2.539251,0 -2.539251,0 -0.152355,0 -0.247087,-0.0768 -0.236875,-0.19149 0,0 0.162774,-1.82815 0.162774,-1.82815 0.0093,-0.10491 0.11211,-0.17456 0.256962,-0.17456 0,0 2.414193,0 2.414193,0 0.144852,0 0.239982,0.0696 0.237816,0.17456 0,0 0,0 0,0 m -0.06198,3.00247 c 0,0 -0.143403,6.94645 -0.143403,6.94645 -0.0033,0.16061 -0.125796,0.26823 -0.306184,0.26823 0,0 -3.006467,0 -3.006467,0 -0.180388,0 -0.291064,-0.10762 -0.276763,-0.26823 0,0 0.618497,-6.94645 0.618497,-6.94645 0.0107,-0.12023 0.121163,-0.20002 0.276195,-0.20002 0,0 2.583868,0 2.583868,0 0.155032,0 0.256739,0.0798 0.254257,0.20002 0,0 0,0 0,0 M 59.885219,88.31663 c 0,0 -0.06618,0.59175 -0.06618,0.59175 -0.0041,0.0364 -0.06395,0.0608 -0.149689,0.0608 0,0 -1.42894,0 -1.42894,0 -0.08574,0 -0.138507,-0.0243 -0.131944,-0.0608 0,0 0.106651,-0.59175 0.106651,-0.59175 0.0062,-0.0346 0.06593,-0.0576 0.149235,-0.0576 0,0 1.388466,0 1.388466,0 0.08331,0 0.136271,0.023 0.1324,0.0576 0,0 0,0 0,0 M 59.77777,89.2774 c 0,0 -0.07156,0.63985 -0.07156,0.63985 -0.0044,0.0394 -0.06682,0.0658 -0.156027,0.0658 0,0 -1.486725,0 -1.486725,0 -0.0892,0 -0.143925,-0.0263 -0.136821,-0.0658 0,0 0.115319,-0.63985 0.115319,-0.63985 0.0067,-0.0374 0.06894,-0.0623 0.155517,-0.0623 0,0 1.442961,0 1.442961,0 0.08658,0 0.141515,0.0249 0.137334,0.0623 0,0 0,0 0,0 m -0.116251,1.03947 c 0,0 -0.07762,0.69405 -0.07762,0.69405 -0.0048,0.0428 -0.06996,0.0714 -0.162925,0.0714 0,0 -1.549382,0 -1.549382,0 -0.09296,0 -0.149781,-0.0286 -0.142067,-0.0714 0,0 0.125088,-0.69405 0.125088,-0.69405 0.0073,-0.0405 0.07223,-0.0674 0.162348,-0.0674 0,0 1.501909,0 1.501909,0 0.09011,0 0.147178,0.0269 0.142647,0.0674 0,0 0,0 0,0 m -0.126179,1.12826 c 0,0 -0.08449,0.75544 -0.08449,0.75544 -0.0052,0.0466 -0.07341,0.0778 -0.170459,0.0778 0,0 -1.61755,0 -1.61755,0 -0.09705,0 -0.156135,-0.0312 -0.147728,-0.0778 0,0 0.136152,-0.75544 0.136152,-0.75544 0.0079,-0.0441 0.07585,-0.0733 0.169804,-0.0733 0,0 1.565879,0 1.565879,0 0.09395,0 0.153313,0.0293 0.148387,0.0733 0,0 0,0 0,0 m -0.137437,1.22892 c 0,0 -0.953874,8.52924 -0.953874,8.52924 -0.0091,0.0811 -0.100493,0.13534 -0.228529,0.13534 0,0 -2.133937,0 -2.133937,0 -0.128036,0 -0.203616,-0.0542 -0.189002,-0.13534 0,0 1.537221,-8.52924 1.537221,-8.52924 0.0087,-0.0481 0.07984,-0.08 0.177974,-0.08 0,0 1.635541,0 1.635541,0 0.09813,0 0.159981,0.0319 0.154606,0.08 0,0 0,0 0,0 m -1.046363,9.35625 c 0,0 -0.16361,1.46295 -0.16361,1.46295 -0.01022,0.0914 -0.107672,0.1525 -0.243597,0.1525 0,0 -2.265431,0 -2.265431,0 -0.135926,0 -0.215524,-0.0612 -0.199059,-0.1525 0,0 0.263667,-1.46295 0.263667,-1.46295 0.0152,-0.0844 0.111913,-0.14037 0.241835,-0.14037 0,0 2.165358,0 2.165358,0 0.129921,0 0.21027,0.056 0.200837,0.14037 0,0 0,0 0,0 m -0.267944,2.39587 c 0,0 -0.185262,1.65656 -0.185262,1.65656 -0.0116,0.10371 -0.11593,0.17313 -0.260782,0.17313 0,0 -2.414194,0 -2.414194,0 -0.144851,0 -0.228907,-0.0694 -0.210215,-0.17313 0,0 0.29856,-1.65656 0.29856,-1.65656 0.01717,-0.0953 0.120606,-0.15852 0.258659,-0.15852 0,0 2.300875,0 2.300875,0 0.138053,0 0.223013,0.0633 0.212359,0.15852 0,0 0,0 0,0 m -0.692307,5.74702 c 0,0 -0.271062,2.40076 -0.271062,2.40076 -0.0052,0.046 -0.07591,0.0865 -0.131494,0.0865 0,0 -0.833766,0 -0.833766,0 -0.05558,0 -0.09904,-0.0405 -0.09286,-0.0865 0,0 0.32325,-2.40076 0.32325,-2.40076 0.0056,-0.0415 0.05801,-0.0907 0.111186,-0.0907 0,0 0.789688,0 0.789688,0 0.05265,0 0.109735,0.0492 0.105053,0.0907 0,0 0,0 0,0 m -1.618995,-3.09756 c 0,0 -0.330143,2.08288 -0.330143,2.08288 -0.0063,0.0397 -0.07335,0.0747 -0.125023,0.0747 0,0 -0.775167,0 -0.775167,0 -0.05168,0 -0.09084,-0.035 -0.08368,-0.0747 0,0 0.37542,-2.08288 0.37542,-2.08288 0.0065,-0.0361 0.05698,-0.079 0.106596,-0.079 0,0 0.736925,0 0.736925,0 0.04913,0 0.100794,0.0429 0.09507,0.079 0,0 0,0 0,0 m -0.490973,3.09756 c 0,0 -0.380528,2.40076 -0.380528,2.40076 -0.0073,0.046 -0.07985,0.0865 -0.135436,0.0865 0,0 -0.833766,0 -0.833766,0 -0.05558,0 -0.0972,-0.0405 -0.08891,-0.0865 0,0 0.432714,-2.40076 0.432714,-2.40076 0.0075,-0.0415 0.06215,-0.0907 0.115322,-0.0907 0,0 0.789688,0 0.789688,0 0.05264,0 0.107489,0.0492 0.100918,0.0907 0,0 0,0 0,0 m -0.566847,3.57635 c 0,0 -0.443395,2.79739 -0.443395,2.79739 -0.0085,0.0538 -0.08759,0.10118 -0.147722,0.10118 0,0 -0.901949,0 -0.901949,0 -0.06013,0 -0.104499,-0.0474 -0.09481,-0.10118 0,0 0.504204,-2.79739 0.504204,-2.79739 0.0087,-0.0481 0.0683,-0.10525 0.125577,-0.10525 0,0 0.850589,0 0.850589,0 0.05671,0 0.11513,0.0571 0.107504,0.10525 0,0 0,0 0,0"
       style="fill:url(#linearGradient7369);fill-opacity:1" />
    <path
       sodipodi:nodetypes="cccccccccccccccccccccccccccccccccccccc"
       inkscape:connector-curvature="0"
       id="path1990"
       d="m 62.626318,22.966119 c 0,0 -3.484483,-0.27107 -2.856558,8.592673 0.6289,8.862969 -1.713935,9.495815 -1.713935,9.495815 -3.54134,-7.145341 -7.425147,-6.783372 -7.425147,-6.783372 4.226792,11.214386 -1.997687,21.253257 -1.997687,21.253257 -3.027495,-6.376459 -6.853836,-7.461859 -6.853836,-7.461859 1.713143,10.22009 -1.713936,18.540812 -1.713935,18.540812 -1.942277,-2.441736 -4.854245,-3.617094 -4.854245,-3.617094 1.370904,1.989363 1.085157,5.968812 0.571311,8.365002 -0.513845,2.396962 -0.285655,6.104884 -0.285655,6.104884 0.925028,7.445983 4.110069,11.660353 7.804118,14.017563 l 5.575874,-3.71989 C 44.49196,82.396028 44.064402,76.100768 44.064402,76.100768 c 0.500195,0 4.570493,2.033956 4.570493,2.033956 -1.357253,-3.392029 2.283343,-10.852791 2.283343,-10.852791 3.213727,16.053857 7.712707,15.826867 7.712707,15.826867 -4.284319,-8.13964 -0.285656,-15.826867 -0.285656,-15.826867 2.713533,6.839641 5.996869,9.04349 5.996869,9.04349 0.07215,-0.564309 1.999591,-3.166276 1.999591,-3.166276 2.855888,-4.973793 1.142623,-16.279187 1.142623,-16.279187 10.636697,11.926913 4.570494,17.863833 4.570494,17.863833 3.925505,-0.112708 7.137588,-7.235697 7.137588,-7.235697 3.069421,4.295232 -0.285656,9.948141 -0.285656,9.948141 2.214312,-0.05713 4.284837,-2.033957 4.284837,-2.033957 0.121557,4.937739 -2.062887,8.31428 -5.630974,11.24022 l 7.592478,5.26815 C 102.39611,83.47027 95.75478,69.995885 95.75478,69.995885 c -1.356279,4.409484 -3.713527,5.200233 -3.713527,5.200233 -0.427067,-2.599218 1.42828,-6.104884 1.42828,-6.104884 4.570981,-10.626918 -3.42787,-18.993137 -3.42787,-18.993137 -1.085218,7.144568 -3.711622,7.461858 -3.711622,7.461858 -2.39957,-18.676233 -10.281707,-20.574768 -10.281707,-20.574768 1.198323,6.647421 -1.428278,8.365002 -1.428278,8.365002 0,0 2.055883,-2.939439 -5.139902,-9.948141 -7.19676,-7.009474 -6.853836,-12.435929 -6.853836,-12.435929 z m 2.570903,18.540812 c 0.529446,4.942143 -1.997686,4.521745 -1.997686,4.521745 -0.775156,-3.456102 1.997686,-4.521745 1.997686,-4.521745 z"
       style="clip-rule:evenodd;fill:url(#linearGradient4711);fill-opacity:1;fill-rule:evenodd;stroke-width:0.86758232" />
  </g>
</svg>
